<?xml version="1.0" encoding="us-ascii" standalone="no"?><svg xmlns="http://www.w3.org/2000/svg" xmlns:xlink="http://www.w3.org/1999/xlink" contentStyleType="text/css" height="544px" preserveAspectRatio="none" style="width:558px;height:544px;background:#FFFFFF;" version="1.1" viewBox="0 0 558 544" width="558px" zoomAndPan="magnify"><defs/><g><rect fill="none" height="90.2031" style="stroke:#000000;stroke-width:1.5;" width="380.5" x="161" y="196.8281"/><rect fill="none" height="90.2031" style="stroke:#000000;stroke-width:1.5;" width="380.5" x="161" y="402.4297"/><line style="stroke:#181818;stroke-width:0.5;stroke-dasharray:5.0,5.0;" x1="83" x2="83" y1="36.2969" y2="509.6328"/><line style="stroke:#181818;stroke-width:0.5;stroke-dasharray:5.0,5.0;" x1="235" x2="235" y1="36.2969" y2="509.6328"/><line style="stroke:#181818;stroke-width:0.5;stroke-dasharray:5.0,5.0;" x1="382.5" x2="382.5" y1="36.2969" y2="509.6328"/><line style="stroke:#181818;stroke-width:0.5;stroke-dasharray:5.0,5.0;" x1="489.5" x2="489.5" y1="36.2969" y2="509.6328"/><rect fill="#E2E2F0" height="30.2969" rx="2.5" ry="2.5" style="stroke:#181818;stroke-width:0.5;" width="156" x="5" y="5"/><text fill="#000000" font-family="sans-serif" font-size="14" lengthAdjust="spacing" textLength="142" x="12" y="24.9951">barEto:Restaurante</text><rect fill="#E2E2F0" height="30.2969" rx="2.5" ry="2.5" style="stroke:#181818;stroke-width:0.5;" width="156" x="5" y="508.6328"/><text fill="#000000" font-family="sans-serif" font-size="14" lengthAdjust="spacing" textLength="142" x="12" y="528.6279">barEto:Restaurante</text><rect fill="#E2E2F0" height="30.2969" rx="2.5" ry="2.5" style="stroke:#181818;stroke-width:0.5;" width="128" x="171" y="5"/><text fill="#000000" font-family="sans-serif" font-size="14" lengthAdjust="spacing" textLength="114" x="178" y="24.9951">cholo:Camarero</text><rect fill="#E2E2F0" height="30.2969" rx="2.5" ry="2.5" style="stroke:#181818;stroke-width:0.5;" width="128" x="171" y="508.6328"/><text fill="#000000" font-family="sans-serif" font-size="14" lengthAdjust="spacing" textLength="114" x="178" y="528.6279">cholo:Camarero</text><rect fill="#E2E2F0" height="30.2969" rx="2.5" ry="2.5" style="stroke:#181818;stroke-width:0.5;" width="111" x="327.5" y="5"/><text fill="#000000" font-family="sans-serif" font-size="14" lengthAdjust="spacing" textLength="97" x="334.5" y="24.9951">ad&#225;n:Hombre</text><rect fill="#E2E2F0" height="30.2969" rx="2.5" ry="2.5" style="stroke:#181818;stroke-width:0.5;" width="111" x="327.5" y="508.6328"/><text fill="#000000" font-family="sans-serif" font-size="14" lengthAdjust="spacing" textLength="97" x="334.5" y="528.6279">ad&#225;n:Hombre</text><rect fill="#E2E2F0" height="30.2969" rx="2.5" ry="2.5" style="stroke:#181818;stroke-width:0.5;" width="83" x="448.5" y="5"/><text fill="#000000" font-family="sans-serif" font-size="14" lengthAdjust="spacing" textLength="69" x="455.5" y="24.9951">eva:Mujer</text><rect fill="#E2E2F0" height="30.2969" rx="2.5" ry="2.5" style="stroke:#181818;stroke-width:0.5;" width="83" x="448.5" y="508.6328"/><text fill="#000000" font-family="sans-serif" font-size="14" lengthAdjust="spacing" textLength="69" x="455.5" y="528.6279">eva:Mujer</text><line style="stroke:#181818;stroke-width:1.0;" x1="83" x2="125" y1="67.4297" y2="67.4297"/><line style="stroke:#181818;stroke-width:1.0;" x1="125" x2="125" y1="67.4297" y2="80.4297"/><line style="stroke:#181818;stroke-width:1.0;" x1="84" x2="125" y1="80.4297" y2="80.4297"/><polygon fill="#181818" points="94,76.4297,84,80.4297,94,84.4297,90,80.4297" style="stroke:#181818;stroke-width:1.0;"/><text fill="#000000" font-family="sans-serif" font-size="13" lengthAdjust="spacing" textLength="109" x="90" y="62.3638">simularEscenario</text><rect fill="#EEEEEE" height="3" style="stroke:#EEEEEE;stroke-width:1.0;" width="551.5" x="0" y="108.9961"/><line style="stroke:#000000;stroke-width:1.0;" x1="0" x2="551.5" y1="108.9961" y2="108.9961"/><line style="stroke:#000000;stroke-width:1.0;" x1="0" x2="551.5" y1="111.9961" y2="111.9961"/><rect fill="#EEEEEE" height="23.1328" style="stroke:#000000;stroke-width:2.0;" width="141" x="205.25" y="98.4297"/><text fill="#000000" font-family="sans-serif" font-size="13" font-weight="bold" lengthAdjust="spacing" textLength="122" x="211.25" y="114.4966">entra una mujer</text><polygon fill="#181818" points="223,148.6953,233,152.6953,223,156.6953,227,152.6953" style="stroke:#181818;stroke-width:1.0;"/><line style="stroke:#181818;stroke-width:1.0;" x1="83" x2="229" y1="152.6953" y2="152.6953"/><text fill="#000000" font-family="sans-serif" font-size="13" lengthAdjust="spacing" textLength="73" x="90" y="147.6294">recibir(eva)</text><polygon fill="#181818" points="478,177.8281,488,181.8281,478,185.8281,482,181.8281" style="stroke:#181818;stroke-width:1.0;"/><line style="stroke:#181818;stroke-width:1.0;" x1="235" x2="484" y1="181.8281" y2="181.8281"/><text fill="#000000" font-family="sans-serif" font-size="13" lengthAdjust="spacing" textLength="107" x="242" y="176.7622">instanceOf Mujer</text><path d="M161,196.8281 L227,196.8281 L227,203.9609 L217,213.9609 L161,213.9609 L161,196.8281 " fill="#EEEEEE" style="stroke:#000000;stroke-width:1.5;"/><rect fill="none" height="90.2031" style="stroke:#000000;stroke-width:1.5;" width="380.5" x="161" y="196.8281"/><text fill="#000000" font-family="sans-serif" font-size="13" font-weight="bold" lengthAdjust="spacing" textLength="21" x="176" y="209.895">alt</text><text fill="#000000" font-family="sans-serif" font-size="11" font-weight="bold" lengthAdjust="spacing" textLength="80" x="242" y="209.0386">[es hombre]</text><polygon fill="#181818" points="371,231.0938,381,235.0938,371,239.0938,375,235.0938" style="stroke:#181818;stroke-width:1.0;"/><line style="stroke:#181818;stroke-width:1.0;" x1="235" x2="377" y1="235.0938" y2="235.0938"/><text fill="#000000" font-family="sans-serif" font-size="13" lengthAdjust="spacing" textLength="105" x="242" y="230.0278">recibirPalmada()</text><line style="stroke:#000000;stroke-width:1.0;stroke-dasharray:2.0,2.0;" x1="161" x2="541.5" y1="244.0938" y2="244.0938"/><text fill="#000000" font-family="sans-serif" font-size="11" font-weight="bold" lengthAdjust="spacing" textLength="67" x="166" y="254.3042">[es mujer]</text><polygon fill="#181818" points="478,275.0313,488,279.0313,478,283.0313,482,279.0313" style="stroke:#181818;stroke-width:1.0;"/><line style="stroke:#181818;stroke-width:1.0;" x1="235" x2="484" y1="279.0313" y2="279.0313"/><text fill="#000000" font-family="sans-serif" font-size="13" lengthAdjust="spacing" textLength="89" x="242" y="273.9653">recibirPiropo()</text><rect fill="#EEEEEE" height="3" style="stroke:#EEEEEE;stroke-width:1.0;" width="551.5" x="0" y="314.5977"/><line style="stroke:#000000;stroke-width:1.0;" x1="0" x2="551.5" y1="314.5977" y2="314.5977"/><line style="stroke:#000000;stroke-width:1.0;" x1="0" x2="551.5" y1="317.5977" y2="317.5977"/><rect fill="#EEEEEE" height="23.1328" style="stroke:#000000;stroke-width:2.0;" width="147" x="202.25" y="304.0313"/><text fill="#000000" font-family="sans-serif" font-size="13" font-weight="bold" lengthAdjust="spacing" textLength="128" x="208.25" y="320.0981">entra un hombre</text><polygon fill="#181818" points="223,354.2969,233,358.2969,223,362.2969,227,358.2969" style="stroke:#181818;stroke-width:1.0;"/><line style="stroke:#181818;stroke-width:1.0;" x1="83" x2="229" y1="358.2969" y2="358.2969"/><text fill="#000000" font-family="sans-serif" font-size="13" lengthAdjust="spacing" textLength="81" x="90" y="353.231">recibir(ad&#225;n)</text><polygon fill="#181818" points="371,383.4297,381,387.4297,371,391.4297,375,387.4297" style="stroke:#181818;stroke-width:1.0;"/><line style="stroke:#181818;stroke-width:1.0;" x1="235" x2="377" y1="387.4297" y2="387.4297"/><text fill="#000000" font-family="sans-serif" font-size="13" lengthAdjust="spacing" textLength="124" x="242" y="382.3638">instanceOf Hombre</text><path d="M161,402.4297 L227,402.4297 L227,409.5625 L217,419.5625 L161,419.5625 L161,402.4297 " fill="#EEEEEE" style="stroke:#000000;stroke-width:1.5;"/><rect fill="none" height="90.2031" style="stroke:#000000;stroke-width:1.5;" width="380.5" x="161" y="402.4297"/><text fill="#000000" font-family="sans-serif" font-size="13" font-weight="bold" lengthAdjust="spacing" textLength="21" x="176" y="415.4966">alt</text><text fill="#000000" font-family="sans-serif" font-size="11" font-weight="bold" lengthAdjust="spacing" textLength="80" x="242" y="414.6401">[es hombre]</text><polygon fill="#181818" points="371,436.6953,381,440.6953,371,444.6953,375,440.6953" style="stroke:#181818;stroke-width:1.0;"/><line style="stroke:#181818;stroke-width:1.0;" x1="235" x2="377" y1="440.6953" y2="440.6953"/><text fill="#000000" font-family="sans-serif" font-size="13" lengthAdjust="spacing" textLength="105" x="242" y="435.6294">recibirPalmada()</text><line style="stroke:#000000;stroke-width:1.0;stroke-dasharray:2.0,2.0;" x1="161" x2="541.5" y1="449.6953" y2="449.6953"/><text fill="#000000" font-family="sans-serif" font-size="11" font-weight="bold" lengthAdjust="spacing" textLength="67" x="166" y="459.9058">[es mujer]</text><polygon fill="#181818" points="478,480.6328,488,484.6328,478,488.6328,482,484.6328" style="stroke:#181818;stroke-width:1.0;"/><line style="stroke:#181818;stroke-width:1.0;" x1="235" x2="484" y1="484.6328" y2="484.6328"/><text fill="#000000" font-family="sans-serif" font-size="13" lengthAdjust="spacing" textLength="89" x="242" y="479.5669">recibirPiropo()</text><!--SRC=[jP1BRi8m48RtFiKeAxBe1Iobcmgf6mJY1XDd4AxyYCOEz-4iNAmJ6qg0HLUiFFByZyyUaRCrTiIGeKUc704JD3AkSzHxIXadbYKrQbn8pJ6wgYoJ_a8lPewDUf3XS3c78YkJ_ew-vwSeEc5HoAatqm-nP5n9FZvlJ1gIzPCJgcGe8DkeLDS1XSm8Kq3minEwRkcja1gOZEqjhwIXLVLIjdEl1XlaXS7GzW2bNA4Jf0J7GdfNrvVyPUtGUHnmrIfoYMP30NXElwajnp7EuZ0yS5zh_k4ktUqhouAzVkpRuNy1]--></g></svg>