<?xml version="1.0" encoding="us-ascii" standalone="no"?><svg xmlns="http://www.w3.org/2000/svg" xmlns:xlink="http://www.w3.org/1999/xlink" contentStyleType="text/css" height="651px" preserveAspectRatio="none" style="width:1585px;height:651px;background:#FFFFFF;" version="1.1" viewBox="0 0 1585 651" width="1585px" zoomAndPan="magnify"><defs/><g><!--cluster personas--><g id="cluster_personas"><path d="M388.5,152.5 L463.5,152.5 A3.75,3.75 0 0 1 466,155 L473,174.7969 L1385.5,174.7969 A2.5,2.5 0 0 1 1388,177.2969 L1388,641.5 A2.5,2.5 0 0 1 1385.5,644 L388.5,644 A2.5,2.5 0 0 1 386,641.5 L386,155 A2.5,2.5 0 0 1 388.5,152.5 " fill="none" style="stroke:#000000;stroke-width:1.5;"/><line style="stroke:#000000;stroke-width:1.5;" x1="386" x2="473" y1="174.7969" y2="174.7969"/><text fill="#000000" font-family="sans-serif" font-size="14" font-weight="bold" lengthAdjust="spacing" textLength="74" x="390" y="167.4951">personas</text></g><!--class VisitadorPersona--><g id="elem_VisitadorPersona"><rect codeLine="32" fill="#F1F1F1" height="80.5938" id="VisitadorPersona" rx="2.5" ry="2.5" style="stroke:#181818;stroke-width:0.5;" width="172" x="928" y="547"/><ellipse cx="952" cy="563" fill="#B4A7E5" rx="11" ry="11" style="stroke:#181818;stroke-width:1.0;"/><path d="M952.9531,559.7813 L954.6719,559.7813 C955.0625,559.7813 955.25,559.75 955.375,559.6719 C955.6406,559.5156 955.7813,559.2344 955.7813,558.9375 C955.7813,558.6719 955.6719,558.4063 955.4375,558.2344 C955.2656,558.125 955.125,558.0938 954.6719,558.0938 L949.5313,558.0938 C949.0938,558.0938 948.9688,558.1094 948.8125,558.2031 C948.5625,558.3594 948.4063,558.6563 948.4063,558.9375 C948.4063,559.2188 948.5469,559.4688 948.7656,559.6406 C948.9219,559.75 949.1094,559.7813 949.5313,559.7813 L951.25,559.7813 L951.25,566.2969 L949.5313,566.2969 C949.0938,566.2969 948.9688,566.3125 948.8125,566.4219 C948.5625,566.5781 948.4063,566.8594 948.4063,567.1563 C948.4063,567.4063 948.5469,567.6719 948.7656,567.8281 C948.9219,567.9531 949.125,568 949.5313,568 L954.6719,568 C955.4219,568 955.7813,567.7188 955.7813,567.1563 C955.7813,566.875 955.6719,566.625 955.4375,566.4531 C955.2656,566.3281 955.125,566.2969 954.6719,566.2969 L952.9531,566.2969 L952.9531,559.7813 Z " fill="#000000"/><text fill="#000000" font-family="sans-serif" font-size="14" font-style="italic" lengthAdjust="spacing" textLength="120" x="968" y="567.8467">VisitadorPersona</text><line style="stroke:#181818;stroke-width:0.5;" x1="929" x2="1099" y1="579" y2="579"/><line style="stroke:#181818;stroke-width:0.5;" x1="929" x2="1099" y1="587" y2="587"/><ellipse cx="939" cy="600.6484" fill="#84BE84" rx="3" ry="3" style="stroke:#038048;stroke-width:1.0;"/><text fill="#000000" font-family="sans-serif" font-size="14" lengthAdjust="spacing" textLength="127" x="948" y="603.9951">void visitar(Mujer)</text><ellipse cx="939" cy="616.9453" fill="#84BE84" rx="3" ry="3" style="stroke:#038048;stroke-width:1.0;"/><text fill="#000000" font-family="sans-serif" font-size="14" lengthAdjust="spacing" textLength="146" x="948" y="620.292">void visitar(Hombre)</text></g><!--class Persona--><g id="elem_Persona"><rect codeLine="38" fill="#F1F1F1" height="80.5938" id="Persona" rx="2.5" ry="2.5" style="stroke:#181818;stroke-width:0.5;" width="160" x="934" y="195.5"/><ellipse cx="981.25" cy="211.5" fill="#A9DCDF" rx="11" ry="11" style="stroke:#181818;stroke-width:1.0;"/><path d="M983.3281,213.3125 L983.7188,214.2969 L983.3281,214.2969 C982.875,214.2969 982.7656,214.3125 982.6094,214.4219 C982.3594,214.5781 982.2031,214.8594 982.2031,215.1563 C982.2031,215.4219 982.3438,215.6719 982.5625,215.8281 C982.7031,215.9531 982.9063,216 983.3281,216 L985.6875,216 C986.0469,216 986.2656,215.9688 986.4063,215.875 C986.6563,215.7344 986.8125,215.4375 986.8125,215.1563 C986.8125,214.875 986.6719,214.625 986.4531,214.4688 C986.2813,214.3281 986.125,214.2969 985.6563,214.2969 L982.2656,206.0938 L978.5938,206.0938 C978.1406,206.0938 978.0156,206.1094 977.8594,206.2031 C977.6094,206.375 977.4531,206.6563 977.4531,206.9375 C977.4531,207.2188 977.5938,207.4688 977.8125,207.6406 C977.9844,207.75 978.1563,207.7813 978.5938,207.7813 L979.6719,207.7813 L977.0313,214.2969 C976.6094,214.2969 976.4531,214.3125 976.2969,214.4219 C976.0469,214.5781 975.8906,214.8594 975.8906,215.1563 C975.8906,215.7188 976.2656,216 977.0156,216 L979.2813,216 C979.6406,216 979.8594,215.9688 979.9844,215.875 C980.25,215.7344 980.3906,215.4375 980.3906,215.1563 C980.3906,214.875 980.2656,214.625 980.0469,214.4531 C979.875,214.3281 979.7344,214.2969 979.2813,214.2969 L978.8906,214.2969 L979.2813,213.3125 L983.3281,213.3125 Z M982.625,211.6094 L979.9531,211.6094 L981.2969,208.3438 L982.625,211.6094 Z " fill="#000000"/><text fill="#000000" font-family="sans-serif" font-size="14" font-style="italic" lengthAdjust="spacing" textLength="57" x="1001.75" y="216.3467">Persona</text><line style="stroke:#181818;stroke-width:0.5;" x1="935" x2="1093" y1="227.5" y2="227.5"/><line style="stroke:#181818;stroke-width:0.5;" x1="935" x2="1093" y1="235.5" y2="235.5"/><ellipse cx="945" cy="257.2969" fill="#84BE84" rx="3" ry="3" style="stroke:#038048;stroke-width:1.0;"/><text fill="#000000" font-family="sans-serif" font-size="14" font-style="italic" lengthAdjust="spacing" textLength="89" x="954" y="252.4951">void aceptar</text><text fill="#000000" font-family="sans-serif" font-size="14" font-style="italic" lengthAdjust="spacing" textLength="130" x="958" y="268.792">(VisitadorPersona)</text></g><!--class Mujer--><g id="elem_Mujer"><rect codeLine="42" fill="#F1F1F1" height="80.5938" id="Mujer" rx="2.5" ry="2.5" style="stroke:#181818;stroke-width:0.5;" width="247" x="890.5" y="395"/><ellipse cx="990.25" cy="411" fill="#ADD1B2" rx="11" ry="11" style="stroke:#181818;stroke-width:1.0;"/><path d="M992.5938,406.6719 C991.6563,406.2344 991.0625,406.0938 990.1875,406.0938 C987.5625,406.0938 985.5625,408.1719 985.5625,410.8906 L985.5625,412.0156 C985.5625,414.5938 987.6719,416.4844 990.5625,416.4844 C991.7813,416.4844 992.9375,416.1875 993.6875,415.6406 C994.2656,415.2344 994.5938,414.7813 994.5938,414.3906 C994.5938,413.9375 994.2031,413.5469 993.7344,413.5469 C993.5156,413.5469 993.3125,413.625 993.125,413.8125 C992.6719,414.2969 992.6719,414.2969 992.4844,414.3906 C992.0625,414.6563 991.375,414.7813 990.6094,414.7813 C988.5625,414.7813 987.2656,413.6875 987.2656,411.9844 L987.2656,410.8906 C987.2656,409.1094 988.5156,407.7969 990.25,407.7969 C990.8281,407.7969 991.4375,407.9531 991.9063,408.2031 C992.3906,408.4844 992.5625,408.7031 992.6563,409.1094 C992.7188,409.5156 992.75,409.6406 992.8906,409.7656 C993.0313,409.9063 993.2656,410.0156 993.4844,410.0156 C993.75,410.0156 994.0156,409.875 994.1875,409.6563 C994.2969,409.5 994.3281,409.3125 994.3281,408.8906 L994.3281,407.4688 C994.3281,407.0313 994.3125,406.9063 994.2188,406.75 C994.0625,406.4844 993.7813,406.3438 993.4844,406.3438 C993.1875,406.3438 992.9844,406.4375 992.7656,406.75 L992.5938,406.6719 Z " fill="#000000"/><text fill="#000000" font-family="sans-serif" font-size="14" lengthAdjust="spacing" textLength="39" x="1010.75" y="415.8467">Mujer</text><line style="stroke:#181818;stroke-width:0.5;" x1="891.5" x2="1136.5" y1="427" y2="427"/><line style="stroke:#181818;stroke-width:0.5;" x1="891.5" x2="1136.5" y1="435" y2="435"/><ellipse cx="901.5" cy="448.6484" fill="#84BE84" rx="3" ry="3" style="stroke:#038048;stroke-width:1.0;"/><text fill="#000000" font-family="sans-serif" font-size="14" lengthAdjust="spacing" textLength="138" x="910.5" y="451.9951">void recibirPiropo()</text><ellipse cx="901.5" cy="464.9453" fill="#84BE84" rx="3" ry="3" style="stroke:#038048;stroke-width:1.0;"/><text fill="#000000" font-family="sans-serif" font-size="14" lengthAdjust="spacing" textLength="221" x="910.5" y="468.292">void aceptar(VisitadorPersona)</text></g><g id="elem_GMN12"><path d="M1173,385 L1173,431.5 L1137.75,435.5 L1173,439.5 L1173,485.7969 A0,0 0 0 0 1173,485.7969 L1335,485.7969 A0,0 0 0 0 1335,485.7969 L1335,395 L1325,385 L1173,385 A0,0 0 0 0 1173,385 " fill="#FEFFDD" style="stroke:#181818;stroke-width:0.5;"/><path d="M1325,385 L1325,395 L1335,395 L1325,385 " fill="#FEFFDD" style="stroke:#181818;stroke-width:0.5;"/><text fill="#000000" font-family="sans-serif" font-size="13" lengthAdjust="spacing" textLength="80" x="1179" y="402.0669">void aceptar</text><text fill="#000000" font-family="sans-serif" font-size="13" lengthAdjust="spacing" textLength="113" x="1187" y="417.1997">(VisitadorPersona</text><text fill="#000000" font-family="sans-serif" font-size="13" lengthAdjust="spacing" textLength="125" x="1195" y="432.3325">visitadorPersona) {</text><text fill="#000000" font-family="sans-serif" font-size="13" lengthAdjust="spacing" textLength="107" x="1187" y="447.4653">visitadorPersona</text><text fill="#000000" font-family="sans-serif" font-size="13" lengthAdjust="spacing" textLength="81" x="1195" y="462.5981">.visitar(this);</text><text fill="#000000" font-family="sans-serif" font-size="13" lengthAdjust="spacing" textLength="9" x="1179" y="477.731">}</text></g><!--class Hombre--><g id="elem_Hombre"><rect codeLine="55" fill="#F1F1F1" height="80.5938" id="Hombre" rx="2.5" ry="2.5" style="stroke:#181818;stroke-width:0.5;" width="247" x="410.5" y="395"/><ellipse cx="500.75" cy="411" fill="#ADD1B2" rx="11" ry="11" style="stroke:#181818;stroke-width:1.0;"/><path d="M503.0938,406.6719 C502.1563,406.2344 501.5625,406.0938 500.6875,406.0938 C498.0625,406.0938 496.0625,408.1719 496.0625,410.8906 L496.0625,412.0156 C496.0625,414.5938 498.1719,416.4844 501.0625,416.4844 C502.2813,416.4844 503.4375,416.1875 504.1875,415.6406 C504.7656,415.2344 505.0938,414.7813 505.0938,414.3906 C505.0938,413.9375 504.7031,413.5469 504.2344,413.5469 C504.0156,413.5469 503.8125,413.625 503.625,413.8125 C503.1719,414.2969 503.1719,414.2969 502.9844,414.3906 C502.5625,414.6563 501.875,414.7813 501.1094,414.7813 C499.0625,414.7813 497.7656,413.6875 497.7656,411.9844 L497.7656,410.8906 C497.7656,409.1094 499.0156,407.7969 500.75,407.7969 C501.3281,407.7969 501.9375,407.9531 502.4063,408.2031 C502.8906,408.4844 503.0625,408.7031 503.1563,409.1094 C503.2188,409.5156 503.25,409.6406 503.3906,409.7656 C503.5313,409.9063 503.7656,410.0156 503.9844,410.0156 C504.25,410.0156 504.5156,409.875 504.6875,409.6563 C504.7969,409.5 504.8281,409.3125 504.8281,408.8906 L504.8281,407.4688 C504.8281,407.0313 504.8125,406.9063 504.7188,406.75 C504.5625,406.4844 504.2813,406.3438 503.9844,406.3438 C503.6875,406.3438 503.4844,406.4375 503.2656,406.75 L503.0938,406.6719 Z " fill="#000000"/><text fill="#000000" font-family="sans-serif" font-size="14" lengthAdjust="spacing" textLength="58" x="521.25" y="415.8467">Hombre</text><line style="stroke:#181818;stroke-width:0.5;" x1="411.5" x2="656.5" y1="427" y2="427"/><line style="stroke:#181818;stroke-width:0.5;" x1="411.5" x2="656.5" y1="435" y2="435"/><ellipse cx="421.5" cy="448.6484" fill="#84BE84" rx="3" ry="3" style="stroke:#038048;stroke-width:1.0;"/><text fill="#000000" font-family="sans-serif" font-size="14" lengthAdjust="spacing" textLength="151" x="430.5" y="451.9951">void recibirPalmada()</text><ellipse cx="421.5" cy="464.9453" fill="#84BE84" rx="3" ry="3" style="stroke:#038048;stroke-width:1.0;"/><text fill="#000000" font-family="sans-serif" font-size="14" lengthAdjust="spacing" textLength="221" x="430.5" y="468.292">void aceptar(VisitadorPersona)</text></g><g id="elem_GMN16"><path d="M693,385 L693,431.5 L657.75,435.5 L693,439.5 L693,485.7969 A0,0 0 0 0 693,485.7969 L855,485.7969 A0,0 0 0 0 855,485.7969 L855,395 L845,385 L693,385 A0,0 0 0 0 693,385 " fill="#FEFFDD" style="stroke:#181818;stroke-width:0.5;"/><path d="M845,385 L845,395 L855,395 L845,385 " fill="#FEFFDD" style="stroke:#181818;stroke-width:0.5;"/><text fill="#000000" font-family="sans-serif" font-size="13" lengthAdjust="spacing" textLength="80" x="699" y="402.0669">void aceptar</text><text fill="#000000" font-family="sans-serif" font-size="13" lengthAdjust="spacing" textLength="113" x="707" y="417.1997">(VisitadorPersona</text><text fill="#000000" font-family="sans-serif" font-size="13" lengthAdjust="spacing" textLength="125" x="715" y="432.3325">visitadorPersona) {</text><text fill="#000000" font-family="sans-serif" font-size="13" lengthAdjust="spacing" textLength="107" x="707" y="447.4653">visitadorPersona</text><text fill="#000000" font-family="sans-serif" font-size="13" lengthAdjust="spacing" textLength="81" x="715" y="462.5981">.visitar(this);</text><text fill="#000000" font-family="sans-serif" font-size="13" lengthAdjust="spacing" textLength="9" x="699" y="477.731">}</text></g><!--class Restaurante--><g id="elem_Restaurante"><rect codeLine="1" fill="#F1F1F1" height="64.2969" id="Restaurante" rx="2.5" ry="2.5" style="stroke:#181818;stroke-width:0.5;" width="156" x="936" y="7"/><ellipse cx="967.2" cy="23" fill="#ADD1B2" rx="11" ry="11" style="stroke:#181818;stroke-width:1.0;"/><path d="M969.5438,18.6719 C968.6063,18.2344 968.0125,18.0938 967.1375,18.0938 C964.5125,18.0938 962.5125,20.1719 962.5125,22.8906 L962.5125,24.0156 C962.5125,26.5938 964.6219,28.4844 967.5125,28.4844 C968.7313,28.4844 969.8875,28.1875 970.6375,27.6406 C971.2156,27.2344 971.5438,26.7813 971.5438,26.3906 C971.5438,25.9375 971.1531,25.5469 970.6844,25.5469 C970.4656,25.5469 970.2625,25.625 970.075,25.8125 C969.6219,26.2969 969.6219,26.2969 969.4344,26.3906 C969.0125,26.6563 968.325,26.7813 967.5594,26.7813 C965.5125,26.7813 964.2156,25.6875 964.2156,23.9844 L964.2156,22.8906 C964.2156,21.1094 965.4656,19.7969 967.2,19.7969 C967.7781,19.7969 968.3875,19.9531 968.8563,20.2031 C969.3406,20.4844 969.5125,20.7031 969.6063,21.1094 C969.6688,21.5156 969.7,21.6406 969.8406,21.7656 C969.9813,21.9063 970.2156,22.0156 970.4344,22.0156 C970.7,22.0156 970.9656,21.875 971.1375,21.6563 C971.2469,21.5 971.2781,21.3125 971.2781,20.8906 L971.2781,19.4688 C971.2781,19.0313 971.2625,18.9063 971.1688,18.75 C971.0125,18.4844 970.7313,18.3438 970.4344,18.3438 C970.1375,18.3438 969.9344,18.4375 969.7156,18.75 L969.5438,18.6719 Z " fill="#000000"/><text fill="#000000" font-family="sans-serif" font-size="14" lengthAdjust="spacing" textLength="88" x="984.8" y="27.8467">Restaurante</text><line style="stroke:#181818;stroke-width:0.5;" x1="937" x2="1091" y1="39" y2="39"/><line style="stroke:#181818;stroke-width:0.5;" x1="937" x2="1091" y1="47" y2="47"/><ellipse cx="947" cy="60.6484" fill="#84BE84" rx="3" ry="3" style="stroke:#038048;stroke-width:1.0;"/><text fill="#000000" font-family="sans-serif" font-size="14" lengthAdjust="spacing" textLength="130" x="956" y="63.9951">simularEscenario()</text></g><!--class AparcaCoches--><g id="elem_AparcaCoches"><rect codeLine="5" fill="#F1F1F1" height="96.8906" id="AparcaCoches" rx="2.5" ry="2.5" style="stroke:#181818;stroke-width:0.5;" width="174" x="1404" y="187.5"/><ellipse cx="1437" cy="203.5" fill="#ADD1B2" rx="11" ry="11" style="stroke:#181818;stroke-width:1.0;"/><path d="M1439.3438,199.1719 C1438.4063,198.7344 1437.8125,198.5938 1436.9375,198.5938 C1434.3125,198.5938 1432.3125,200.6719 1432.3125,203.3906 L1432.3125,204.5156 C1432.3125,207.0938 1434.4219,208.9844 1437.3125,208.9844 C1438.5313,208.9844 1439.6875,208.6875 1440.4375,208.1406 C1441.0156,207.7344 1441.3438,207.2813 1441.3438,206.8906 C1441.3438,206.4375 1440.9531,206.0469 1440.4844,206.0469 C1440.2656,206.0469 1440.0625,206.125 1439.875,206.3125 C1439.4219,206.7969 1439.4219,206.7969 1439.2344,206.8906 C1438.8125,207.1563 1438.125,207.2813 1437.3594,207.2813 C1435.3125,207.2813 1434.0156,206.1875 1434.0156,204.4844 L1434.0156,203.3906 C1434.0156,201.6094 1435.2656,200.2969 1437,200.2969 C1437.5781,200.2969 1438.1875,200.4531 1438.6563,200.7031 C1439.1406,200.9844 1439.3125,201.2031 1439.4063,201.6094 C1439.4688,202.0156 1439.5,202.1406 1439.6406,202.2656 C1439.7813,202.4063 1440.0156,202.5156 1440.2344,202.5156 C1440.5,202.5156 1440.7656,202.375 1440.9375,202.1563 C1441.0469,202 1441.0781,201.8125 1441.0781,201.3906 L1441.0781,199.9688 C1441.0781,199.5313 1441.0625,199.4063 1440.9688,199.25 C1440.8125,198.9844 1440.5313,198.8438 1440.2344,198.8438 C1439.9375,198.8438 1439.7344,198.9375 1439.5156,199.25 L1439.3438,199.1719 Z " fill="#000000"/><text fill="#000000" font-family="sans-serif" font-size="14" lengthAdjust="spacing" textLength="102" x="1455" y="208.3467">AparcaCoches</text><line style="stroke:#181818;stroke-width:0.5;" x1="1405" x2="1577" y1="219.5" y2="219.5"/><line style="stroke:#181818;stroke-width:0.5;" x1="1405" x2="1577" y1="227.5" y2="227.5"/><ellipse cx="1415" cy="241.1484" fill="#84BE84" rx="3" ry="3" style="stroke:#038048;stroke-width:1.0;"/><text fill="#000000" font-family="sans-serif" font-size="14" lengthAdjust="spacing" textLength="148" x="1424" y="244.4951">void recibir(Persona)</text><ellipse cx="1415" cy="257.4453" fill="#84BE84" rx="3" ry="3" style="stroke:#038048;stroke-width:1.0;"/><text fill="#000000" font-family="sans-serif" font-size="14" lengthAdjust="spacing" textLength="127" x="1424" y="260.792">void visitar(Mujer)</text><ellipse cx="1415" cy="273.7422" fill="#84BE84" rx="3" ry="3" style="stroke:#038048;stroke-width:1.0;"/><text fill="#000000" font-family="sans-serif" font-size="14" lengthAdjust="spacing" textLength="146" x="1424" y="277.0889">void visitar(Hombre)</text></g><!--class Camarero--><g id="elem_Camarero"><rect codeLine="11" fill="#F1F1F1" height="96.8906" id="Camarero" rx="2.5" ry="2.5" style="stroke:#181818;stroke-width:0.5;" width="174" x="7" y="187.5"/><ellipse cx="54.75" cy="203.5" fill="#ADD1B2" rx="11" ry="11" style="stroke:#181818;stroke-width:1.0;"/><path d="M57.0938,199.1719 C56.1563,198.7344 55.5625,198.5938 54.6875,198.5938 C52.0625,198.5938 50.0625,200.6719 50.0625,203.3906 L50.0625,204.5156 C50.0625,207.0938 52.1719,208.9844 55.0625,208.9844 C56.2813,208.9844 57.4375,208.6875 58.1875,208.1406 C58.7656,207.7344 59.0938,207.2813 59.0938,206.8906 C59.0938,206.4375 58.7031,206.0469 58.2344,206.0469 C58.0156,206.0469 57.8125,206.125 57.625,206.3125 C57.1719,206.7969 57.1719,206.7969 56.9844,206.8906 C56.5625,207.1563 55.875,207.2813 55.1094,207.2813 C53.0625,207.2813 51.7656,206.1875 51.7656,204.4844 L51.7656,203.3906 C51.7656,201.6094 53.0156,200.2969 54.75,200.2969 C55.3281,200.2969 55.9375,200.4531 56.4063,200.7031 C56.8906,200.9844 57.0625,201.2031 57.1563,201.6094 C57.2188,202.0156 57.25,202.1406 57.3906,202.2656 C57.5313,202.4063 57.7656,202.5156 57.9844,202.5156 C58.25,202.5156 58.5156,202.375 58.6875,202.1563 C58.7969,202 58.8281,201.8125 58.8281,201.3906 L58.8281,199.9688 C58.8281,199.5313 58.8125,199.4063 58.7188,199.25 C58.5625,198.9844 58.2813,198.8438 57.9844,198.8438 C57.6875,198.8438 57.4844,198.9375 57.2656,199.25 L57.0938,199.1719 Z " fill="#000000"/><text fill="#000000" font-family="sans-serif" font-size="14" lengthAdjust="spacing" textLength="70" x="75.25" y="208.3467">Camarero</text><line style="stroke:#181818;stroke-width:0.5;" x1="8" x2="180" y1="219.5" y2="219.5"/><line style="stroke:#181818;stroke-width:0.5;" x1="8" x2="180" y1="227.5" y2="227.5"/><ellipse cx="18" cy="241.1484" fill="#84BE84" rx="3" ry="3" style="stroke:#038048;stroke-width:1.0;"/><text fill="#000000" font-family="sans-serif" font-size="14" lengthAdjust="spacing" textLength="148" x="27" y="244.4951">void recibir(Persona)</text><ellipse cx="18" cy="257.4453" fill="#84BE84" rx="3" ry="3" style="stroke:#038048;stroke-width:1.0;"/><text fill="#000000" font-family="sans-serif" font-size="14" lengthAdjust="spacing" textLength="127" x="27" y="260.792">void visitar(Mujer)</text><ellipse cx="18" cy="273.7422" fill="#84BE84" rx="3" ry="3" style="stroke:#038048;stroke-width:1.0;"/><text fill="#000000" font-family="sans-serif" font-size="14" lengthAdjust="spacing" textLength="146" x="27" y="277.0889">void visitar(Hombre)</text></g><g id="elem_GMN5"><path d="M216.5,148 L216.5,232 L181.062,236 L216.5,240 L216.5,324.4609 A0,0 0 0 0 216.5,324.4609 L369.5,324.4609 A0,0 0 0 0 369.5,324.4609 L369.5,158 L359.5,148 L216.5,148 A0,0 0 0 0 216.5,148 " fill="#FEFFDD" style="stroke:#181818;stroke-width:0.5;"/><path d="M359.5,148 L359.5,158 L369.5,158 L359.5,148 " fill="#FEFFDD" style="stroke:#181818;stroke-width:0.5;"/><text fill="#000000" font-family="sans-serif" font-size="13" lengthAdjust="spacing" textLength="70" x="222.5" y="165.0669">void visitar</text><text fill="#000000" font-family="sans-serif" font-size="13" lengthAdjust="spacing" textLength="98" x="230.5" y="180.1997">(Mujer mujer) {</text><text fill="#000000" font-family="sans-serif" font-size="13" lengthAdjust="spacing" textLength="37" x="230.5" y="195.3325">mujer</text><text fill="#000000" font-family="sans-serif" font-size="13" lengthAdjust="spacing" textLength="98" x="238.5" y="210.4653">.recibirPiropo();</text><text fill="#000000" font-family="sans-serif" font-size="13" lengthAdjust="spacing" textLength="9" x="222.5" y="225.5981">}</text><text fill="#000000" font-family="sans-serif" font-size="13" lengthAdjust="spacing" textLength="4" x="222.5" y="240.731">&#160;</text><text fill="#000000" font-family="sans-serif" font-size="13" lengthAdjust="spacing" textLength="70" x="222.5" y="255.8638">void visitar</text><text fill="#000000" font-family="sans-serif" font-size="13" lengthAdjust="spacing" textLength="124" x="230.5" y="270.9966">(Hombre hombre){</text><text fill="#000000" font-family="sans-serif" font-size="13" lengthAdjust="spacing" textLength="50" x="230.5" y="286.1294">hombre</text><text fill="#000000" font-family="sans-serif" font-size="13" lengthAdjust="spacing" textLength="114" x="238.5" y="301.2622">.recibirPalmada();</text><text fill="#000000" font-family="sans-serif" font-size="13" lengthAdjust="spacing" textLength="9" x="222.5" y="316.395">}</text></g><!--link Restaurante to Camarero--><g id="link_Restaurante_Camarero"><path codeLine="71" d="M922.604,45.093 C737.898,56.458 326.884,87.476 199,144.5 C180.429,152.781 162.679,165.454 147.23,178.718 " fill="none" id="Restaurante-Camarero" style="stroke:#181818;stroke-width:1.0;"/><polygon fill="#181818" points="935.771,44.293,929.5394,40.6643,923.7931,45.0209,930.0247,48.6496,935.771,44.293" style="stroke:#181818;stroke-width:1.0;"/><polygon fill="#181818" points="137.426,187.479,146.8025,184.4655,141.1546,184.1477,141.4724,178.4998,137.426,187.479" style="stroke:#181818;stroke-width:1.0;"/><line style="stroke:#181818;stroke-width:1.0;" x1="141.1546" x2="147.1195" y1="184.1477" y2="178.817"/></g><!--link Restaurante to AparcaCoches--><g id="link_Restaurante_AparcaCoches"><path codeLine="72" d="M1104.8,60.956 C1174.09,78.645 1270.94,107.076 1351,144.5 C1372.46,154.531 1394.51,167.398 1414.57,180.262 " fill="none" id="Restaurante-AparcaCoches" style="stroke:#181818;stroke-width:1.0;"/><polygon fill="#181818" points="1092.19,57.778,1097.027,63.1262,1103.8242,60.7182,1098.9872,55.37,1092.19,57.778" style="stroke:#181818;stroke-width:1.0;"/><polygon fill="#181818" points="1425.5,187.391,1420.1459,179.1246,1421.3117,184.66,1415.7763,185.8258,1425.5,187.391" style="stroke:#181818;stroke-width:1.0;"/><line style="stroke:#181818;stroke-width:1.0;" x1="1421.3117" x2="1414.615" y1="184.66" y2="180.288"/></g><!--link Restaurante to Persona--><g id="link_Restaurante_Persona"><path codeLine="73" d="M1014,84.384 C1014,113.47 1014,151.633 1014,182.266 " fill="none" id="Restaurante-Persona" style="stroke:#181818;stroke-width:1.0;"/><polygon fill="#181818" points="1014,71.33,1010,77.33,1014,83.33,1018,77.33,1014,71.33" style="stroke:#181818;stroke-width:1.0;"/><polygon fill="#181818" points="1014,195.317,1018,186.317,1014,190.317,1010,186.317,1014,195.317" style="stroke:#181818;stroke-width:1.0;"/><line style="stroke:#181818;stroke-width:1.0;" x1="1014" x2="1014" y1="190.317" y2="182.317"/><text fill="#000000" font-family="sans-serif" font-size="13" lengthAdjust="spacing" textLength="42" x="1015" y="114.0669">cliente</text></g><!--reverse link Persona to Hombre--><g id="link_Persona_Hombre"><path codeLine="75" d="M915.353,277.589 C831.821,311.959 712.796,360.933 630.02,394.992 " fill="none" id="Persona-backto-Hombre" style="stroke:#181818;stroke-width:1.0;"/><polygon fill="none" points="912.77,271.083,933.929,269.946,918.097,284.03,912.77,271.083" style="stroke:#181818;stroke-width:1.0;"/></g><!--reverse link Persona to Mujer--><g id="link_Persona_Mujer"><path codeLine="76" d="M1014,297.227 C1014,328.948 1014,366.958 1014,394.93 " fill="none" id="Persona-backto-Mujer" style="stroke:#181818;stroke-width:1.0;"/><polygon fill="none" points="1007,296.967,1014,276.967,1021,296.967,1007,296.967" style="stroke:#181818;stroke-width:1.0;"/></g><!--reverse link VisitadorPersona to Camarero--><g id="link_VisitadorPersona_Camarero"><path codeLine="78" d="M907.532,577.7687 C755.152,564.0668 483.387,534.803 394,494 C285.911,444.66 186.722,344.396 133.891,284.732 " fill="none" id="VisitadorPersona-backto-Camarero" style="stroke:#181818;stroke-width:1.0;"/><polygon fill="none" points="908.454,570.8228,927.759,579.5591,907.219,584.7683,908.454,570.8228" style="stroke:#181818;stroke-width:1.0;"/></g><!--reverse link VisitadorPersona to AparcaCoches--><g id="link_VisitadorPersona_AparcaCoches"><path codeLine="79" d="M1120.05,571.5766 C1212.6,556.392 1337.37,529.98 1372,494 C1429.79,433.953 1463.22,340.755 1479.22,284.63 " fill="none" id="VisitadorPersona-backto-AparcaCoches" style="stroke:#181818;stroke-width:1.0;"/><polygon fill="none" points="1121.1,578.4977,1100.25,574.737,1118.89,564.6726,1121.1,578.4977" style="stroke:#181818;stroke-width:1.0;"/></g><!--link AparcaCoches to Persona--><g id="link_AparcaCoches_Persona"><path codeLine="81" d="M1403.8,236 C1302.28,236 1200.77,236 1099.26,236 " fill="none" id="AparcaCoches-to-Persona" style="stroke:#181818;stroke-width:1.0;stroke-dasharray:7.0,7.0;"/><polygon fill="#181818" points="1094.12,236,1103.12,240,1099.12,236,1103.12,232,1094.12,236" style="stroke:#181818;stroke-width:1.0;"/></g><!--link AparcaCoches to Hombre--><g id="link_AparcaCoches_Hombre"><path codeLine="82" d="M1428.28,284.655 C1405.16,299.807 1378,314.962 1351,324 C1064.94,419.755 969.796,320.992 675,385 C664.337,387.315 653.372,390.206 642.491,393.42 " fill="none" id="AparcaCoches-to-Hombre" style="stroke:#181818;stroke-width:1.0;stroke-dasharray:7.0,7.0;"/><polygon fill="#181818" points="637.5,394.919,647.2703,396.1604,642.2886,393.4804,644.9686,388.4987,637.5,394.919" style="stroke:#181818;stroke-width:1.0;"/></g><!--link AparcaCoches to Mujer--><g id="link_AparcaCoches_Mujer"><path codeLine="83" d="M1473.88,284.798 C1462.33,309.893 1444.49,338.732 1419,355 C1369.23,386.765 1212.55,371.805 1155,385 C1144.58,387.388 1133.87,390.29 1123.22,393.477 " fill="none" id="AparcaCoches-to-Mujer" style="stroke:#181818;stroke-width:1.0;stroke-dasharray:7.0,7.0;"/><polygon fill="#181818" points="1118.34,394.961,1128.115,396.1653,1123.1231,393.5042,1125.7841,388.5123,1118.34,394.961" style="stroke:#181818;stroke-width:1.0;"/></g><!--link Camarero to Persona--><g id="link_Camarero_Persona"><path codeLine="85" d="M125.1,187.435 C146.78,158.353 178.565,123.975 216.5,107.75 C344,53.217 750.475,159.487 928.784,210.65 " fill="none" id="Camarero-to-Persona" style="stroke:#181818;stroke-width:1.0;stroke-dasharray:7.0,7.0;"/><polygon fill="#181818" points="933.733,212.073,926.1888,205.7417,928.9277,210.6913,923.9781,213.4301,933.733,212.073" style="stroke:#181818;stroke-width:1.0;"/></g><!--link Camarero to Hombre--><g id="link_Camarero_Hombre"><path codeLine="86" d="M143.799,284.71 C160.404,298.793 179.631,313.286 199,324 C263.372,359.608 341.091,386.129 405.459,404.25 " fill="none" id="Camarero-to-Hombre" style="stroke:#181818;stroke-width:1.0;stroke-dasharray:7.0,7.0;"/><polygon fill="#181818" points="410.462,405.649,402.8706,399.3744,405.6465,404.3033,400.7175,407.0792,410.462,405.649" style="stroke:#181818;stroke-width:1.0;"/></g><!--link Camarero to Mujer--><g id="link_Camarero_Mujer"><path codeLine="87" d="M139.33,284.719 C156.513,299.877 177.224,315.019 199,324 C337.826,381.253 725.222,353.269 872,385 C882.733,387.32 893.771,390.214 904.726,393.431 " fill="none" id="Camarero-to-Mujer" style="stroke:#181818;stroke-width:1.0;stroke-dasharray:7.0,7.0;"/><polygon fill="#181818" points="909.752,394.93,902.2706,388.5246,904.9606,393.501,899.9842,396.191,909.752,394.93" style="stroke:#181818;stroke-width:1.0;"/></g><!--link Hombre to VisitadorPersona--><g id="link_Hombre_VisitadorPersona"><path codeLine="89" d="M626.309,476.001 C642.415,482.358 659.101,488.611 675,494 C757.801,522.065 854.134,547.696 922.9,564.8232 " fill="none" id="Hombre-to-VisitadorPersona" style="stroke:#181818;stroke-width:1.0;stroke-dasharray:7.0,7.0;"/><polygon fill="#181818" points="927.803,566.0415,920.0332,559.9892,922.9506,564.8358,918.104,567.7532,927.803,566.0415" style="stroke:#181818;stroke-width:1.0;"/></g><!--link Mujer to VisitadorPersona--><g id="link_Mujer_VisitadorPersona"><path codeLine="90" d="M1014,476.303 C1014,496.387 1014,520.824 1014,541.579 " fill="none" id="Mujer-to-VisitadorPersona" style="stroke:#181818;stroke-width:1.0;stroke-dasharray:7.0,7.0;"/><polygon fill="#181818" points="1014,546.771,1018,537.771,1014,541.771,1010,537.771,1014,546.771" style="stroke:#181818;stroke-width:1.0;"/></g><!--link Persona to VisitadorPersona--><g id="link_Persona_VisitadorPersona"><path codeLine="91" d="M1094.28,247.076 C1174.94,261.946 1295.21,298.14 1352,385 C1378.51,425.547 1381.39,455.488 1352,494 C1322.12,533.161 1194.79,559.791 1105.26,574.0738 " fill="none" id="Persona-to-VisitadorPersona" style="stroke:#181818;stroke-width:1.0;stroke-dasharray:7.0,7.0;"/><polygon fill="#181818" points="1100.22,574.8706,1109.7295,577.4337,1105.1601,574.0989,1108.4948,569.5295,1100.22,574.8706" style="stroke:#181818;stroke-width:1.0;"/></g><!--SRC=[pLGzJyCm4DtzAsvCGSqF08I4AYGMf8g1YUNgcCRGsD7P3KFfVyUV8Lz830nCiUwUtxrxTmu_e37m98p58w6o0axi4eniZWUaUyE5GfAwMB4pOpnWxreaZXlDQs4We3ijAo31vKvIiHLajC9LZdVII8jKF1xV1CsY3xhPaHYmRx114gJ_a5bfrnN9VMtP4C40ubLe0e4h2F7elW1bAhkLf5jdmBNNEBqVYq0TQtc2U1mpuA712YE5K9NNmrYB_1tt0jhObN7bcNJ-qojo0S-XHgKfDVtjng_zj7elREtQEp7S6Kl8BKIFXvodd3j78bUyTKGl2egfXi6Kec_J2MMhSZXnBH9DXvAmtjGfF9ZPJJd2kBebQ9dDiBKqOzEZ-ZIrkVuygF_RmDdFOFXQBzQL_b3hs_xXB6U7ZtOPaPVYoYs95CeNow6RpmXAnitZOHqOcorj3-Z5_GmPAMIZdqnPzlBcYQHf5a-Q-l_9a6GKJ0IZMBgS5iL7PZEDJs0nbNjRIdu1]--></g></svg>