<?xml version="1.0" encoding="us-ascii" standalone="no"?><svg xmlns="http://www.w3.org/2000/svg" xmlns:xlink="http://www.w3.org/1999/xlink" contentStyleType="text/css" height="519px" preserveAspectRatio="none" style="width:844px;height:519px;background:#FFFFFF;" version="1.1" viewBox="0 0 844 519" width="844px" zoomAndPan="magnify"><defs/><g><!--class Restaurante--><g id="elem_Restaurante"><rect codeLine="1" fill="#F1F1F1" height="64.2969" id="Restaurante" rx="2.5" ry="2.5" style="stroke:#181818;stroke-width:0.5;" width="156" x="452" y="7"/><ellipse cx="483.2" cy="23" fill="#ADD1B2" rx="11" ry="11" style="stroke:#181818;stroke-width:1.0;"/><path d="M485.5438,18.6719 C484.6063,18.2344 484.0125,18.0938 483.1375,18.0938 C480.5125,18.0938 478.5125,20.1719 478.5125,22.8906 L478.5125,24.0156 C478.5125,26.5938 480.6219,28.4844 483.5125,28.4844 C484.7313,28.4844 485.8875,28.1875 486.6375,27.6406 C487.2156,27.2344 487.5438,26.7813 487.5438,26.3906 C487.5438,25.9375 487.1531,25.5469 486.6844,25.5469 C486.4656,25.5469 486.2625,25.625 486.075,25.8125 C485.6219,26.2969 485.6219,26.2969 485.4344,26.3906 C485.0125,26.6563 484.325,26.7813 483.5594,26.7813 C481.5125,26.7813 480.2156,25.6875 480.2156,23.9844 L480.2156,22.8906 C480.2156,21.1094 481.4656,19.7969 483.2,19.7969 C483.7781,19.7969 484.3875,19.9531 484.8563,20.2031 C485.3406,20.4844 485.5125,20.7031 485.6063,21.1094 C485.6688,21.5156 485.7,21.6406 485.8406,21.7656 C485.9813,21.9063 486.2156,22.0156 486.4344,22.0156 C486.7,22.0156 486.9656,21.875 487.1375,21.6563 C487.2469,21.5 487.2781,21.3125 487.2781,20.8906 L487.2781,19.4688 C487.2781,19.0313 487.2625,18.9063 487.1688,18.75 C487.0125,18.4844 486.7313,18.3438 486.4344,18.3438 C486.1375,18.3438 485.9344,18.4375 485.7156,18.75 L485.5438,18.6719 Z " fill="#000000"/><text fill="#000000" font-family="sans-serif" font-size="14" lengthAdjust="spacing" textLength="88" x="500.8" y="27.8467">Restaurante</text><line style="stroke:#181818;stroke-width:0.5;" x1="453" x2="607" y1="39" y2="39"/><line style="stroke:#181818;stroke-width:0.5;" x1="453" x2="607" y1="47" y2="47"/><ellipse cx="463" cy="60.6484" fill="#84BE84" rx="3" ry="3" style="stroke:#038048;stroke-width:1.0;"/><text fill="#000000" font-family="sans-serif" font-size="14" lengthAdjust="spacing" textLength="130" x="472" y="63.9951">simularEscenario()</text></g><!--class AparcaCoches--><g id="elem_AparcaCoches"><rect codeLine="5" fill="#F1F1F1" height="64.2969" id="AparcaCoches" rx="2.5" ry="2.5" style="stroke:#181818;stroke-width:0.5;" width="228" x="609" y="173"/><ellipse cx="667.75" cy="189" fill="#ADD1B2" rx="11" ry="11" style="stroke:#181818;stroke-width:1.0;"/><path d="M670.0938,184.6719 C669.1563,184.2344 668.5625,184.0938 667.6875,184.0938 C665.0625,184.0938 663.0625,186.1719 663.0625,188.8906 L663.0625,190.0156 C663.0625,192.5938 665.1719,194.4844 668.0625,194.4844 C669.2813,194.4844 670.4375,194.1875 671.1875,193.6406 C671.7656,193.2344 672.0938,192.7813 672.0938,192.3906 C672.0938,191.9375 671.7031,191.5469 671.2344,191.5469 C671.0156,191.5469 670.8125,191.625 670.625,191.8125 C670.1719,192.2969 670.1719,192.2969 669.9844,192.3906 C669.5625,192.6563 668.875,192.7813 668.1094,192.7813 C666.0625,192.7813 664.7656,191.6875 664.7656,189.9844 L664.7656,188.8906 C664.7656,187.1094 666.0156,185.7969 667.75,185.7969 C668.3281,185.7969 668.9375,185.9531 669.4063,186.2031 C669.8906,186.4844 670.0625,186.7031 670.1563,187.1094 C670.2188,187.5156 670.25,187.6406 670.3906,187.7656 C670.5313,187.9063 670.7656,188.0156 670.9844,188.0156 C671.25,188.0156 671.5156,187.875 671.6875,187.6563 C671.7969,187.5 671.8281,187.3125 671.8281,186.8906 L671.8281,185.4688 C671.8281,185.0313 671.8125,184.9063 671.7188,184.75 C671.5625,184.4844 671.2813,184.3438 670.9844,184.3438 C670.6875,184.3438 670.4844,184.4375 670.2656,184.75 L670.0938,184.6719 Z " fill="#000000"/><text fill="#000000" font-family="sans-serif" font-size="14" lengthAdjust="spacing" textLength="102" x="688.25" y="193.8467">AparcaCoches</text><line style="stroke:#181818;stroke-width:0.5;" x1="610" x2="836" y1="205" y2="205"/><line style="stroke:#181818;stroke-width:0.5;" x1="610" x2="836" y1="213" y2="213"/><ellipse cx="620" cy="226.6484" fill="#84BE84" rx="3" ry="3" style="stroke:#038048;stroke-width:1.0;"/><text fill="#000000" font-family="sans-serif" font-size="14" lengthAdjust="spacing" textLength="202" x="629" y="229.9951">void recogerCoche(Persona)</text></g><!--class Camarero--><g id="elem_Camarero"><rect codeLine="9" fill="#F1F1F1" height="64.2969" id="Camarero" rx="2.5" ry="2.5" style="stroke:#181818;stroke-width:0.5;" width="174" x="7" y="173"/><ellipse cx="54.75" cy="189" fill="#ADD1B2" rx="11" ry="11" style="stroke:#181818;stroke-width:1.0;"/><path d="M57.0938,184.6719 C56.1563,184.2344 55.5625,184.0938 54.6875,184.0938 C52.0625,184.0938 50.0625,186.1719 50.0625,188.8906 L50.0625,190.0156 C50.0625,192.5938 52.1719,194.4844 55.0625,194.4844 C56.2813,194.4844 57.4375,194.1875 58.1875,193.6406 C58.7656,193.2344 59.0938,192.7813 59.0938,192.3906 C59.0938,191.9375 58.7031,191.5469 58.2344,191.5469 C58.0156,191.5469 57.8125,191.625 57.625,191.8125 C57.1719,192.2969 57.1719,192.2969 56.9844,192.3906 C56.5625,192.6563 55.875,192.7813 55.1094,192.7813 C53.0625,192.7813 51.7656,191.6875 51.7656,189.9844 L51.7656,188.8906 C51.7656,187.1094 53.0156,185.7969 54.75,185.7969 C55.3281,185.7969 55.9375,185.9531 56.4063,186.2031 C56.8906,186.4844 57.0625,186.7031 57.1563,187.1094 C57.2188,187.5156 57.25,187.6406 57.3906,187.7656 C57.5313,187.9063 57.7656,188.0156 57.9844,188.0156 C58.25,188.0156 58.5156,187.875 58.6875,187.6563 C58.7969,187.5 58.8281,187.3125 58.8281,186.8906 L58.8281,185.4688 C58.8281,185.0313 58.8125,184.9063 58.7188,184.75 C58.5625,184.4844 58.2813,184.3438 57.9844,184.3438 C57.6875,184.3438 57.4844,184.4375 57.2656,184.75 L57.0938,184.6719 Z " fill="#000000"/><text fill="#000000" font-family="sans-serif" font-size="14" lengthAdjust="spacing" textLength="70" x="75.25" y="193.8467">Camarero</text><line style="stroke:#181818;stroke-width:0.5;" x1="8" x2="180" y1="205" y2="205"/><line style="stroke:#181818;stroke-width:0.5;" x1="8" x2="180" y1="213" y2="213"/><ellipse cx="18" cy="226.6484" fill="#84BE84" rx="3" ry="3" style="stroke:#038048;stroke-width:1.0;"/><text fill="#000000" font-family="sans-serif" font-size="14" lengthAdjust="spacing" textLength="148" x="27" y="229.9951">void recibir(Persona)</text></g><g id="elem_GMN5"><path d="M216,132 L216,201 L181.211,205 L216,209 L216,278.1953 A0,0 0 0 0 216,278.1953 L460,278.1953 A0,0 0 0 0 460,278.1953 L460,142 L450,132 L216,132 A0,0 0 0 0 216,132 " fill="#FEFFDD" style="stroke:#181818;stroke-width:0.5;"/><path d="M450,132 L450,142 L460,142 L450,132 " fill="#FEFFDD" style="stroke:#181818;stroke-width:0.5;"/><text fill="#000000" font-family="sans-serif" font-size="13" lengthAdjust="spacing" textLength="201" x="222" y="149.0669">void recibir(Persona persona) {</text><text fill="#000000" font-family="sans-serif" font-size="13" lengthAdjust="spacing" textLength="215" x="230" y="164.1997">if (persona instanceOf Hombre) {</text><text fill="#000000" font-family="sans-serif" font-size="13" lengthAdjust="spacing" textLength="127" x="238" y="179.3325">((Hombre) persona)</text><text fill="#000000" font-family="sans-serif" font-size="13" lengthAdjust="spacing" textLength="122" x="246" y="194.4653">.recibirPalamada();</text><text fill="#000000" font-family="sans-serif" font-size="13" lengthAdjust="spacing" textLength="52" x="230" y="209.5981">} else {</text><text fill="#000000" font-family="sans-serif" font-size="13" lengthAdjust="spacing" textLength="110" x="238" y="224.731">((Mujer) persona)</text><text fill="#000000" font-family="sans-serif" font-size="13" lengthAdjust="spacing" textLength="98" x="246" y="239.8638">.recibirPiropo();</text><text fill="#000000" font-family="sans-serif" font-size="13" lengthAdjust="spacing" textLength="9" x="230" y="254.9966">}</text><text fill="#000000" font-family="sans-serif" font-size="13" lengthAdjust="spacing" textLength="9" x="222" y="270.1294">}</text></g><!--class Persona--><g id="elem_Persona"><rect codeLine="24" fill="#F1F1F1" height="48" id="Persona" rx="2.5" ry="2.5" style="stroke:#181818;stroke-width:0.5;" width="89" x="485.5" y="339"/><ellipse cx="500.5" cy="355" fill="#A9DCDF" rx="11" ry="11" style="stroke:#181818;stroke-width:1.0;"/><path d="M502.5781,356.8125 L502.9688,357.7969 L502.5781,357.7969 C502.125,357.7969 502.0156,357.8125 501.8594,357.9219 C501.6094,358.0781 501.4531,358.3594 501.4531,358.6563 C501.4531,358.9219 501.5938,359.1719 501.8125,359.3281 C501.9531,359.4531 502.1563,359.5 502.5781,359.5 L504.9375,359.5 C505.2969,359.5 505.5156,359.4688 505.6563,359.375 C505.9063,359.2344 506.0625,358.9375 506.0625,358.6563 C506.0625,358.375 505.9219,358.125 505.7031,357.9688 C505.5313,357.8281 505.375,357.7969 504.9063,357.7969 L501.5156,349.5938 L497.8438,349.5938 C497.3906,349.5938 497.2656,349.6094 497.1094,349.7031 C496.8594,349.875 496.7031,350.1563 496.7031,350.4375 C496.7031,350.7188 496.8438,350.9688 497.0625,351.1406 C497.2344,351.25 497.4063,351.2813 497.8438,351.2813 L498.9219,351.2813 L496.2813,357.7969 C495.8594,357.7969 495.7031,357.8125 495.5469,357.9219 C495.2969,358.0781 495.1406,358.3594 495.1406,358.6563 C495.1406,359.2188 495.5156,359.5 496.2656,359.5 L498.5313,359.5 C498.8906,359.5 499.1094,359.4688 499.2344,359.375 C499.5,359.2344 499.6406,358.9375 499.6406,358.6563 C499.6406,358.375 499.5156,358.125 499.2969,357.9531 C499.125,357.8281 498.9844,357.7969 498.5313,357.7969 L498.1406,357.7969 L498.5313,356.8125 L502.5781,356.8125 Z M501.875,355.1094 L499.2031,355.1094 L500.5469,351.8438 L501.875,355.1094 Z " fill="#000000"/><text fill="#000000" font-family="sans-serif" font-size="14" font-style="italic" lengthAdjust="spacing" textLength="57" x="514.5" y="359.8467">Persona</text><line style="stroke:#181818;stroke-width:0.5;" x1="486.5" x2="573.5" y1="371" y2="371"/><line style="stroke:#181818;stroke-width:0.5;" x1="486.5" x2="573.5" y1="379" y2="379"/></g><!--class Hombre--><g id="elem_Hombre"><rect codeLine="25" fill="#F1F1F1" height="64.2969" id="Hombre" rx="2.5" ry="2.5" style="stroke:#181818;stroke-width:0.5;" width="143" x="520.5" y="448"/><ellipse cx="559.35" cy="464" fill="#ADD1B2" rx="11" ry="11" style="stroke:#181818;stroke-width:1.0;"/><path d="M561.6938,459.6719 C560.7563,459.2344 560.1625,459.0938 559.2875,459.0938 C556.6625,459.0938 554.6625,461.1719 554.6625,463.8906 L554.6625,465.0156 C554.6625,467.5938 556.7719,469.4844 559.6625,469.4844 C560.8813,469.4844 562.0375,469.1875 562.7875,468.6406 C563.3656,468.2344 563.6938,467.7813 563.6938,467.3906 C563.6938,466.9375 563.3031,466.5469 562.8344,466.5469 C562.6156,466.5469 562.4125,466.625 562.225,466.8125 C561.7719,467.2969 561.7719,467.2969 561.5844,467.3906 C561.1625,467.6563 560.475,467.7813 559.7094,467.7813 C557.6625,467.7813 556.3656,466.6875 556.3656,464.9844 L556.3656,463.8906 C556.3656,462.1094 557.6156,460.7969 559.35,460.7969 C559.9281,460.7969 560.5375,460.9531 561.0063,461.2031 C561.4906,461.4844 561.6625,461.7031 561.7563,462.1094 C561.8188,462.5156 561.85,462.6406 561.9906,462.7656 C562.1313,462.9063 562.3656,463.0156 562.5844,463.0156 C562.85,463.0156 563.1156,462.875 563.2875,462.6563 C563.3969,462.5 563.4281,462.3125 563.4281,461.8906 L563.4281,460.4688 C563.4281,460.0313 563.4125,459.9063 563.3188,459.75 C563.1625,459.4844 562.8813,459.3438 562.5844,459.3438 C562.2875,459.3438 562.0844,459.4375 561.8656,459.75 L561.6938,459.6719 Z " fill="#000000"/><text fill="#000000" font-family="sans-serif" font-size="14" lengthAdjust="spacing" textLength="58" x="578.65" y="468.8467">Hombre</text><line style="stroke:#181818;stroke-width:0.5;" x1="521.5" x2="662.5" y1="480" y2="480"/><line style="stroke:#181818;stroke-width:0.5;" x1="521.5" x2="662.5" y1="488" y2="488"/><ellipse cx="531.5" cy="501.6484" fill="#84BE84" rx="3" ry="3" style="stroke:#038048;stroke-width:1.0;"/><text fill="#000000" font-family="sans-serif" font-size="14" lengthAdjust="spacing" textLength="117" x="540.5" y="504.9951">recibirPalmada()</text></g><!--class Mujer--><g id="elem_Mujer"><rect codeLine="28" fill="#F1F1F1" height="64.2969" id="Mujer" rx="2.5" ry="2.5" style="stroke:#181818;stroke-width:0.5;" width="130" x="355" y="448"/><ellipse cx="396.55" cy="464" fill="#ADD1B2" rx="11" ry="11" style="stroke:#181818;stroke-width:1.0;"/><path d="M398.8938,459.6719 C397.9563,459.2344 397.3625,459.0938 396.4875,459.0938 C393.8625,459.0938 391.8625,461.1719 391.8625,463.8906 L391.8625,465.0156 C391.8625,467.5938 393.9719,469.4844 396.8625,469.4844 C398.0813,469.4844 399.2375,469.1875 399.9875,468.6406 C400.5656,468.2344 400.8938,467.7813 400.8938,467.3906 C400.8938,466.9375 400.5031,466.5469 400.0344,466.5469 C399.8156,466.5469 399.6125,466.625 399.425,466.8125 C398.9719,467.2969 398.9719,467.2969 398.7844,467.3906 C398.3625,467.6563 397.675,467.7813 396.9094,467.7813 C394.8625,467.7813 393.5656,466.6875 393.5656,464.9844 L393.5656,463.8906 C393.5656,462.1094 394.8156,460.7969 396.55,460.7969 C397.1281,460.7969 397.7375,460.9531 398.2063,461.2031 C398.6906,461.4844 398.8625,461.7031 398.9563,462.1094 C399.0188,462.5156 399.05,462.6406 399.1906,462.7656 C399.3313,462.9063 399.5656,463.0156 399.7844,463.0156 C400.05,463.0156 400.3156,462.875 400.4875,462.6563 C400.5969,462.5 400.6281,462.3125 400.6281,461.8906 L400.6281,460.4688 C400.6281,460.0313 400.6125,459.9063 400.5188,459.75 C400.3625,459.4844 400.0813,459.3438 399.7844,459.3438 C399.4875,459.3438 399.2844,459.4375 399.0656,459.75 L398.8938,459.6719 Z " fill="#000000"/><text fill="#000000" font-family="sans-serif" font-size="14" lengthAdjust="spacing" textLength="39" x="416.45" y="468.8467">Mujer</text><line style="stroke:#181818;stroke-width:0.5;" x1="356" x2="484" y1="480" y2="480"/><line style="stroke:#181818;stroke-width:0.5;" x1="356" x2="484" y1="488" y2="488"/><ellipse cx="366" cy="501.6484" fill="#84BE84" rx="3" ry="3" style="stroke:#038048;stroke-width:1.0;"/><text fill="#000000" font-family="sans-serif" font-size="14" lengthAdjust="spacing" textLength="104" x="375" y="504.9951">recibirPiropo()</text></g><!--link Restaurante to Camarero--><g id="link_Restaurante_Camarero"><path codeLine="32" d="M439.04,56.598 C370.637,71.102 275.73,95.602 198,132 C179.075,140.862 159.851,153.083 143.163,164.943 " fill="none" id="Restaurante-Camarero" style="stroke:#181818;stroke-width:1.0;"/><polygon fill="#181818" points="451.923,53.918,445.2339,51.2243,440.1747,56.3629,446.8638,59.0565,451.923,53.918" style="stroke:#181818;stroke-width:1.0;"/><polygon fill="#181818" points="132.592,172.645,142.2215,170.5779,136.6331,169.7006,137.5104,164.1122,132.592,172.645" style="stroke:#181818;stroke-width:1.0;"/><line style="stroke:#181818;stroke-width:1.0;" x1="136.6331" x2="143.0995" y1="169.7006" y2="164.9895"/></g><!--link Restaurante to AparcaCoches--><g id="link_Restaurante_AparcaCoches"><path codeLine="33" d="M576.826,79.79 C606.958,105.395 645.975,138.548 676.118,164.162 " fill="none" id="Restaurante-AparcaCoches" style="stroke:#181818;stroke-width:1.0;"/><polygon fill="#181818" points="566.756,71.233,568.7376,78.1665,575.8999,79.0041,573.9183,72.0706,566.756,71.233" style="stroke:#181818;stroke-width:1.0;"/><polygon fill="#181818" points="686.381,172.883,682.1135,164.0067,682.5711,169.645,676.9327,170.1026,686.381,172.883" style="stroke:#181818;stroke-width:1.0;"/><line style="stroke:#181818;stroke-width:1.0;" x1="682.5711" x2="676.4745" y1="169.645" y2="164.465"/></g><!--link Restaurante to Persona--><g id="link_Restaurante_Persona"><path codeLine="34" d="M530,84.595 C530,148.912 530,266.48 530,325.768 " fill="none" id="Restaurante-Persona" style="stroke:#181818;stroke-width:1.0;"/><polygon fill="#181818" points="530,71.167,526,77.167,530,83.167,534,77.167,530,71.167" style="stroke:#181818;stroke-width:1.0;"/><polygon fill="#181818" points="530,338.847,534,329.847,530,333.847,526,329.847,530,338.847" style="stroke:#181818;stroke-width:1.0;"/><line style="stroke:#181818;stroke-width:1.0;" x1="530" x2="530" y1="333.847" y2="325.847"/><text fill="#000000" font-family="sans-serif" font-size="13" lengthAdjust="spacing" textLength="42" x="531" y="209.5669">cliente</text></g><!--link Camarero to Persona--><g id="link_Camarero_Persona"><path codeLine="36" d="M129.518,237.132 C148.542,252.031 173.135,268.629 198,278 C306.435,318.868 349.219,265.437 457,308 C473.211,314.402 489.036,325.346 501.784,335.715 " fill="none" id="Camarero-to-Persona" style="stroke:#181818;stroke-width:1.0;stroke-dasharray:7.0,7.0;"/><polygon fill="#181818" points="505.639,338.909,501.2609,330.0868,501.7889,335.7189,496.1567,336.2469,505.639,338.909" style="stroke:#181818;stroke-width:1.0;"/></g><!--link Camarero to Hombre--><g id="link_Camarero_Hombre"><path codeLine="37" d="M136.16,237.095 C154.744,250.299 177.076,265.496 198,278 C257.29,313.431 427.812,398.321 523.96,445.6634 " fill="none" id="Camarero-to-Hombre" style="stroke:#181818;stroke-width:1.0;stroke-dasharray:7.0,7.0;"/><polygon fill="#181818" points="528.481,447.8891,522.1734,440.3251,523.9952,445.6806,518.6397,447.5024,528.481,447.8891" style="stroke:#181818;stroke-width:1.0;"/></g><!--link Camarero to Mujer--><g id="link_Camarero_Mujer"><path codeLine="38" d="M131.079,237.051 C192.479,288.469 314.829,390.927 378.826,444.5199 " fill="none" id="Camarero-to-Mujer" style="stroke:#181818;stroke-width:1.0;stroke-dasharray:7.0,7.0;"/><polygon fill="#181818" points="382.956,447.9782,378.6238,439.1333,379.1225,444.7682,373.4877,445.2669,382.956,447.9782" style="stroke:#181818;stroke-width:1.0;"/></g><!--link AparcaCoches to Persona--><g id="link_AparcaCoches_Persona"><path codeLine="40" d="M684.407,237.194 C648.678,266.073 596.143,308.537 562.502,335.729 " fill="none" id="AparcaCoches-to-Persona" style="stroke:#181818;stroke-width:1.0;stroke-dasharray:7.0,7.0;"/><polygon fill="#181818" points="558.496,338.967,568.01,336.4206,562.3847,335.8241,562.9813,330.1987,558.496,338.967" style="stroke:#181818;stroke-width:1.0;"/></g><!--link AparcaCoches to Hombre--><g id="link_AparcaCoches_Hombre"><path codeLine="41" d="M720.578,237.164 C715.936,280.747 702.725,360.959 666,418 C659.77,427.6768 651.509,436.5753 642.768,444.4102 " fill="none" id="AparcaCoches-to-Hombre" style="stroke:#181818;stroke-width:1.0;stroke-dasharray:7.0,7.0;"/><polygon fill="#181818" points="638.997,447.7021,648.408,444.7982,642.7642,444.4145,643.1479,438.7707,638.997,447.7021" style="stroke:#181818;stroke-width:1.0;"/></g><!--link AparcaCoches to Mujer--><g id="link_AparcaCoches_Mujer"><path codeLine="42" d="M706.369,237.161 C684.362,276.11 642.406,342.993 592,387 C561.972,413.2165 523.193,434.7748 490.06,450.4159 " fill="none" id="AparcaCoches-to-Mujer" style="stroke:#181818;stroke-width:1.0;stroke-dasharray:7.0,7.0;"/><polygon fill="#181818" points="485.214,452.6806,495.0611,452.4935,489.7437,450.5635,491.6737,445.2461,485.214,452.6806" style="stroke:#181818;stroke-width:1.0;"/></g><!--reverse link Persona to Hombre--><g id="link_Persona_Hombre"><path codeLine="44" d="M552.225,405.224 C559.81,419.2924 568.158,434.7772 575.24,447.9125 " fill="none" id="Persona-backto-Hombre" style="stroke:#181818;stroke-width:1.0;"/><polygon fill="none" points="545.876,408.198,542.547,387.272,558.199,401.555,545.876,408.198" style="stroke:#181818;stroke-width:1.0;"/></g><!--reverse link Persona to Mujer--><g id="link_Persona_Mujer"><path codeLine="45" d="M493.752,401.896 C479.482,416.8141 463.3,433.7323 449.736,447.9125 " fill="none" id="Persona-backto-Mujer" style="stroke:#181818;stroke-width:1.0;"/><polygon fill="none" points="488.857,396.886,507.74,387.272,498.974,406.563,488.857,396.886" style="stroke:#181818;stroke-width:1.0;"/></g><!--SRC=[TP91JiGm34NtEOMN6T3q082Gq0Y93MB43TpKCnFKnfNJmWBcxgH9MbgrBFlzllDjrzJeFRoJxx0NT1q1VAjRyBRfQvHdRyYXMDOxTLNAHFYfHJ5uO7CX7-5FjXK86JwJH5aVIJmxd9aEsA2GC2mSjhGoXns706BFbqvj8T1cD3G1i2VGMG3hmW3EqDi9NhWfXH82eFNuFNgZ353ataUiGxGAzUu-LAv0jQV9-zf_aFnljS8jPsD8JwuQ1b0AIzy9cWxIx3bztaJAa_Rmbo5524qI51zUClcnOQNpSztiA_vo-yTfmzlL-T6sYN77S1TYMtB38DFLYc82bcAQPgd5y4ej_fDvWrKXDrdfkT6OxE4dPHtvbHxvNm00]--></g></svg>