<?xml version="1.0" encoding="us-ascii" standalone="no"?><svg xmlns="http://www.w3.org/2000/svg" xmlns:xlink="http://www.w3.org/1999/xlink" contentStyleType="text/css" height="366px" preserveAspectRatio="none" style="width:519px;height:366px;background:#FFFFFF;" version="1.1" viewBox="0 0 519 366" width="519px" zoomAndPan="magnify"><defs/><g><line style="stroke:#181818;stroke-width:0.5;stroke-dasharray:5.0,5.0;" x1="83" x2="83" y1="36.2969" y2="331.4922"/><line style="stroke:#181818;stroke-width:0.5;stroke-dasharray:5.0,5.0;" x1="235" x2="235" y1="36.2969" y2="331.4922"/><line style="stroke:#181818;stroke-width:0.5;stroke-dasharray:5.0,5.0;" x1="364" x2="364" y1="36.2969" y2="331.4922"/><line style="stroke:#181818;stroke-width:0.5;stroke-dasharray:5.0,5.0;" x1="471" x2="471" y1="36.2969" y2="331.4922"/><rect fill="#E2E2F0" height="30.2969" rx="2.5" ry="2.5" style="stroke:#181818;stroke-width:0.5;" width="156" x="5" y="5"/><text fill="#000000" font-family="sans-serif" font-size="14" lengthAdjust="spacing" textLength="142" x="12" y="24.9951">barEto:Restaurante</text><rect fill="#E2E2F0" height="30.2969" rx="2.5" ry="2.5" style="stroke:#181818;stroke-width:0.5;" width="156" x="5" y="330.4922"/><text fill="#000000" font-family="sans-serif" font-size="14" lengthAdjust="spacing" textLength="142" x="12" y="350.4873">barEto:Restaurante</text><rect fill="#E2E2F0" height="30.2969" rx="2.5" ry="2.5" style="stroke:#181818;stroke-width:0.5;" width="128" x="171" y="5"/><text fill="#000000" font-family="sans-serif" font-size="14" lengthAdjust="spacing" textLength="114" x="178" y="24.9951">cholo:Camarero</text><rect fill="#E2E2F0" height="30.2969" rx="2.5" ry="2.5" style="stroke:#181818;stroke-width:0.5;" width="128" x="171" y="330.4922"/><text fill="#000000" font-family="sans-serif" font-size="14" lengthAdjust="spacing" textLength="114" x="178" y="350.4873">cholo:Camarero</text><rect fill="#E2E2F0" height="30.2969" rx="2.5" ry="2.5" style="stroke:#181818;stroke-width:0.5;" width="111" x="309" y="5"/><text fill="#000000" font-family="sans-serif" font-size="14" lengthAdjust="spacing" textLength="97" x="316" y="24.9951">ad&#225;n:Hombre</text><rect fill="#E2E2F0" height="30.2969" rx="2.5" ry="2.5" style="stroke:#181818;stroke-width:0.5;" width="111" x="309" y="330.4922"/><text fill="#000000" font-family="sans-serif" font-size="14" lengthAdjust="spacing" textLength="97" x="316" y="350.4873">ad&#225;n:Hombre</text><rect fill="#E2E2F0" height="30.2969" rx="2.5" ry="2.5" style="stroke:#181818;stroke-width:0.5;" width="83" x="430" y="5"/><text fill="#000000" font-family="sans-serif" font-size="14" lengthAdjust="spacing" textLength="69" x="437" y="24.9951">eva:Mujer</text><rect fill="#E2E2F0" height="30.2969" rx="2.5" ry="2.5" style="stroke:#181818;stroke-width:0.5;" width="83" x="430" y="330.4922"/><text fill="#000000" font-family="sans-serif" font-size="14" lengthAdjust="spacing" textLength="69" x="437" y="350.4873">eva:Mujer</text><line style="stroke:#181818;stroke-width:1.0;" x1="83" x2="125" y1="67.4297" y2="67.4297"/><line style="stroke:#181818;stroke-width:1.0;" x1="125" x2="125" y1="67.4297" y2="80.4297"/><line style="stroke:#181818;stroke-width:1.0;" x1="84" x2="125" y1="80.4297" y2="80.4297"/><polygon fill="#181818" points="94,76.4297,84,80.4297,94,84.4297,90,80.4297" style="stroke:#181818;stroke-width:1.0;"/><text fill="#000000" font-family="sans-serif" font-size="13" lengthAdjust="spacing" textLength="109" x="90" y="62.3638">simularEscenario</text><polygon fill="#181818" points="223,105.5625,233,109.5625,223,113.5625,227,109.5625" style="stroke:#181818;stroke-width:1.0;"/><line style="stroke:#181818;stroke-width:1.0;" x1="83" x2="229" y1="109.5625" y2="109.5625"/><text fill="#000000" font-family="sans-serif" font-size="13" lengthAdjust="spacing" textLength="81" x="90" y="104.4966">recibir(ad&#225;n)</text><polygon fill="#181818" points="352.5,134.6953,362.5,138.6953,352.5,142.6953,356.5,138.6953" style="stroke:#181818;stroke-width:1.0;"/><line style="stroke:#181818;stroke-width:1.0;" x1="235" x2="358.5" y1="138.6953" y2="138.6953"/><text fill="#000000" font-family="sans-serif" font-size="13" lengthAdjust="spacing" textLength="82" x="242" y="133.6294">aceptar(this)</text><polygon fill="#181818" points="246,163.8281,236,167.8281,246,171.8281,242,167.8281" style="stroke:#181818;stroke-width:1.0;"/><line style="stroke:#181818;stroke-width:1.0;" x1="240" x2="363.5" y1="167.8281" y2="167.8281"/><text fill="#000000" font-family="sans-serif" font-size="13" lengthAdjust="spacing" textLength="72" x="252" y="162.7622">visitar(this)</text><polygon fill="#181818" points="352.5,192.9609,362.5,196.9609,352.5,200.9609,356.5,196.9609" style="stroke:#181818;stroke-width:1.0;"/><line style="stroke:#181818;stroke-width:1.0;" x1="235" x2="358.5" y1="196.9609" y2="196.9609"/><text fill="#000000" font-family="sans-serif" font-size="13" lengthAdjust="spacing" textLength="105" x="242" y="191.895">recibirPalmada()</text><polygon fill="#181818" points="223,222.0938,233,226.0938,223,230.0938,227,226.0938" style="stroke:#181818;stroke-width:1.0;"/><line style="stroke:#181818;stroke-width:1.0;" x1="83" x2="229" y1="226.0938" y2="226.0938"/><text fill="#000000" font-family="sans-serif" font-size="13" lengthAdjust="spacing" textLength="73" x="90" y="221.0278">recibir(eva)</text><polygon fill="#181818" points="459.5,251.2266,469.5,255.2266,459.5,259.2266,463.5,255.2266" style="stroke:#181818;stroke-width:1.0;"/><line style="stroke:#181818;stroke-width:1.0;" x1="235" x2="465.5" y1="255.2266" y2="255.2266"/><text fill="#000000" font-family="sans-serif" font-size="13" lengthAdjust="spacing" textLength="82" x="242" y="250.1606">aceptar(this)</text><polygon fill="#181818" points="246,280.3594,236,284.3594,246,288.3594,242,284.3594" style="stroke:#181818;stroke-width:1.0;"/><line style="stroke:#181818;stroke-width:1.0;" x1="240" x2="470.5" y1="284.3594" y2="284.3594"/><text fill="#000000" font-family="sans-serif" font-size="13" lengthAdjust="spacing" textLength="72" x="252" y="279.2935">visitar(this)</text><polygon fill="#181818" points="459.5,309.4922,469.5,313.4922,459.5,317.4922,463.5,313.4922" style="stroke:#181818;stroke-width:1.0;"/><line style="stroke:#181818;stroke-width:1.0;" x1="235" x2="465.5" y1="313.4922" y2="313.4922"/><text fill="#000000" font-family="sans-serif" font-size="13" lengthAdjust="spacing" textLength="89" x="242" y="308.4263">recibirPiropo()</text><!--SRC=[XKzB3i8W4Drp2j8LBBm02pV6n8s9yGPJIj8nfP21zZwUnOj9eOseYQvcCkyx7YYYHWzZv2sGYOv3u4rQZz6fgmaH9agWQPYlgBftGs7cJHt09Z6vXhtHe7lSnqpBcpevszA7bPaXCz9Kv-bcA7ciJNRxhPFY0Uqqf5P1cn48NKqgRHGdex554ZbCid9EUAcXE6ZZ8v28FGR9ohMIpnZm1N-fL_SB31Ow4F9NW_HCvR2y-9c-tFvd5-MMZEIy4_89]--></g></svg>