<?xml version="1.0" encoding="us-ascii" standalone="no"?><svg xmlns="http://www.w3.org/2000/svg" xmlns:xlink="http://www.w3.org/1999/xlink" contentStyleType="text/css" height="505px" preserveAspectRatio="none" style="width:1576px;height:505px;background:#FFFFFF;" version="1.1" viewBox="0 0 1576 505" width="1576px" zoomAndPan="magnify"><defs/><g><!--cluster personas--><g id="cluster_personas"><path d="M387,160.5 L462,160.5 A3.75,3.75 0 0 1 464.5,163 L471.5,182.7969 L1323,182.7969 A2.5,2.5 0 0 1 1325.5,185.2969 L1325.5,495.5 A2.5,2.5 0 0 1 1323,498 L387,498 A2.5,2.5 0 0 1 384.5,495.5 L384.5,163 A2.5,2.5 0 0 1 387,160.5 " fill="none" style="stroke:#000000;stroke-width:1.5;"/><line style="stroke:#000000;stroke-width:1.5;" x1="384.5" x2="471.5" y1="182.7969" y2="182.7969"/><text fill="#000000" font-family="sans-serif" font-size="14" font-weight="bold" lengthAdjust="spacing" textLength="74" x="388.5" y="175.4951">personas</text></g><!--class Persona--><g id="elem_Persona"><rect codeLine="32" fill="#F1F1F1" height="80.5938" id="Persona" rx="2.5" ry="2.5" style="stroke:#181818;stroke-width:0.5;" width="220" x="438.5" y="195.5"/><ellipse cx="515.75" cy="211.5" fill="#A9DCDF" rx="11" ry="11" style="stroke:#181818;stroke-width:1.0;"/><path d="M517.8281,213.3125 L518.2188,214.2969 L517.8281,214.2969 C517.375,214.2969 517.2656,214.3125 517.1094,214.4219 C516.8594,214.5781 516.7031,214.8594 516.7031,215.1563 C516.7031,215.4219 516.8438,215.6719 517.0625,215.8281 C517.2031,215.9531 517.4063,216 517.8281,216 L520.1875,216 C520.5469,216 520.7656,215.9688 520.9063,215.875 C521.1563,215.7344 521.3125,215.4375 521.3125,215.1563 C521.3125,214.875 521.1719,214.625 520.9531,214.4688 C520.7813,214.3281 520.625,214.2969 520.1563,214.2969 L516.7656,206.0938 L513.0938,206.0938 C512.6406,206.0938 512.5156,206.1094 512.3594,206.2031 C512.1094,206.375 511.9531,206.6563 511.9531,206.9375 C511.9531,207.2188 512.0938,207.4688 512.3125,207.6406 C512.4844,207.75 512.6563,207.7813 513.0938,207.7813 L514.1719,207.7813 L511.5313,214.2969 C511.1094,214.2969 510.9531,214.3125 510.7969,214.4219 C510.5469,214.5781 510.3906,214.8594 510.3906,215.1563 C510.3906,215.7188 510.7656,216 511.5156,216 L513.7813,216 C514.1406,216 514.3594,215.9688 514.4844,215.875 C514.75,215.7344 514.8906,215.4375 514.8906,215.1563 C514.8906,214.875 514.7656,214.625 514.5469,214.4531 C514.375,214.3281 514.2344,214.2969 513.7813,214.2969 L513.3906,214.2969 L513.7813,213.3125 L517.8281,213.3125 Z M517.125,211.6094 L514.4531,211.6094 L515.7969,208.3438 L517.125,211.6094 Z " fill="#000000"/><text fill="#000000" font-family="sans-serif" font-size="14" font-style="italic" lengthAdjust="spacing" textLength="57" x="536.25" y="216.3467">Persona</text><line style="stroke:#181818;stroke-width:0.5;" x1="439.5" x2="657.5" y1="227.5" y2="227.5"/><line style="stroke:#181818;stroke-width:0.5;" x1="439.5" x2="657.5" y1="235.5" y2="235.5"/><ellipse cx="449.5" cy="249.1484" fill="#84BE84" rx="3" ry="3" style="stroke:#038048;stroke-width:1.0;"/><text fill="#000000" font-family="sans-serif" font-size="14" font-style="italic" lengthAdjust="spacing" textLength="194" x="458.5" y="252.4951">void aceptar(AparcaCohes)</text><ellipse cx="449.5" cy="265.4453" fill="#84BE84" rx="3" ry="3" style="stroke:#038048;stroke-width:1.0;"/><text fill="#000000" font-family="sans-serif" font-size="14" font-style="italic" lengthAdjust="spacing" textLength="171" x="458.5" y="268.792">void aceptar(Camarero)</text></g><!--class Mujer--><g id="elem_Mujer"><rect codeLine="37" fill="#F1F1F1" height="96.8906" id="Mujer" rx="2.5" ry="2.5" style="stroke:#181818;stroke-width:0.5;" width="220" x="400.5" y="385"/><ellipse cx="486.75" cy="401" fill="#ADD1B2" rx="11" ry="11" style="stroke:#181818;stroke-width:1.0;"/><path d="M489.0938,396.6719 C488.1563,396.2344 487.5625,396.0938 486.6875,396.0938 C484.0625,396.0938 482.0625,398.1719 482.0625,400.8906 L482.0625,402.0156 C482.0625,404.5938 484.1719,406.4844 487.0625,406.4844 C488.2813,406.4844 489.4375,406.1875 490.1875,405.6406 C490.7656,405.2344 491.0938,404.7813 491.0938,404.3906 C491.0938,403.9375 490.7031,403.5469 490.2344,403.5469 C490.0156,403.5469 489.8125,403.625 489.625,403.8125 C489.1719,404.2969 489.1719,404.2969 488.9844,404.3906 C488.5625,404.6563 487.875,404.7813 487.1094,404.7813 C485.0625,404.7813 483.7656,403.6875 483.7656,401.9844 L483.7656,400.8906 C483.7656,399.1094 485.0156,397.7969 486.75,397.7969 C487.3281,397.7969 487.9375,397.9531 488.4063,398.2031 C488.8906,398.4844 489.0625,398.7031 489.1563,399.1094 C489.2188,399.5156 489.25,399.6406 489.3906,399.7656 C489.5313,399.9063 489.7656,400.0156 489.9844,400.0156 C490.25,400.0156 490.5156,399.875 490.6875,399.6563 C490.7969,399.5 490.8281,399.3125 490.8281,398.8906 L490.8281,397.4688 C490.8281,397.0313 490.8125,396.9063 490.7188,396.75 C490.5625,396.4844 490.2813,396.3438 489.9844,396.3438 C489.6875,396.3438 489.4844,396.4375 489.2656,396.75 L489.0938,396.6719 Z " fill="#000000"/><text fill="#000000" font-family="sans-serif" font-size="14" lengthAdjust="spacing" textLength="39" x="507.25" y="405.8467">Mujer</text><line style="stroke:#181818;stroke-width:0.5;" x1="401.5" x2="619.5" y1="417" y2="417"/><line style="stroke:#181818;stroke-width:0.5;" x1="401.5" x2="619.5" y1="425" y2="425"/><ellipse cx="411.5" cy="438.6484" fill="#84BE84" rx="3" ry="3" style="stroke:#038048;stroke-width:1.0;"/><text fill="#000000" font-family="sans-serif" font-size="14" lengthAdjust="spacing" textLength="138" x="420.5" y="441.9951">void recibirPiropo()</text><ellipse cx="411.5" cy="454.9453" fill="#84BE84" rx="3" ry="3" style="stroke:#038048;stroke-width:1.0;"/><text fill="#000000" font-family="sans-serif" font-size="14" lengthAdjust="spacing" textLength="194" x="420.5" y="458.292">void aceptar(AparcaCohes)</text><ellipse cx="411.5" cy="471.2422" fill="#84BE84" rx="3" ry="3" style="stroke:#038048;stroke-width:1.0;"/><text fill="#000000" font-family="sans-serif" font-size="14" lengthAdjust="spacing" textLength="170" x="420.5" y="474.5889">void aceptar(Camarero)</text></g><g id="elem_GMN11"><path d="M655.5,390.5 L655.5,429.5 L620.664,433.5 L655.5,437.5 L655.5,476.1641 A0,0 0 0 0 655.5,476.1641 L837.5,476.1641 A0,0 0 0 0 837.5,476.1641 L837.5,400.5 L827.5,390.5 L655.5,390.5 A0,0 0 0 0 655.5,390.5 " fill="#FEFFDD" style="stroke:#181818;stroke-width:0.5;"/><path d="M827.5,390.5 L827.5,400.5 L837.5,400.5 L827.5,390.5 " fill="#FEFFDD" style="stroke:#181818;stroke-width:0.5;"/><text fill="#000000" font-family="sans-serif" font-size="13" lengthAdjust="spacing" textLength="80" x="661.5" y="407.5669">void aceptar</text><text fill="#000000" font-family="sans-serif" font-size="13" lengthAdjust="spacing" textLength="153" x="669.5" y="422.6997">(Camarero camarero) {</text><text fill="#000000" font-family="sans-serif" font-size="13" lengthAdjust="spacing" textLength="62" x="669.5" y="437.8325">camarero</text><text fill="#000000" font-family="sans-serif" font-size="13" lengthAdjust="spacing" textLength="81" x="677.5" y="452.9653">.visitar(this);</text><text fill="#000000" font-family="sans-serif" font-size="13" lengthAdjust="spacing" textLength="9" x="661.5" y="468.0981">}</text></g><!--class Hombre--><g id="elem_Hombre"><rect codeLine="50" fill="#F1F1F1" height="96.8906" id="Hombre" rx="2.5" ry="2.5" style="stroke:#181818;stroke-width:0.5;" width="220" x="872.5" y="385"/><ellipse cx="949.25" cy="401" fill="#ADD1B2" rx="11" ry="11" style="stroke:#181818;stroke-width:1.0;"/><path d="M951.5938,396.6719 C950.6563,396.2344 950.0625,396.0938 949.1875,396.0938 C946.5625,396.0938 944.5625,398.1719 944.5625,400.8906 L944.5625,402.0156 C944.5625,404.5938 946.6719,406.4844 949.5625,406.4844 C950.7813,406.4844 951.9375,406.1875 952.6875,405.6406 C953.2656,405.2344 953.5938,404.7813 953.5938,404.3906 C953.5938,403.9375 953.2031,403.5469 952.7344,403.5469 C952.5156,403.5469 952.3125,403.625 952.125,403.8125 C951.6719,404.2969 951.6719,404.2969 951.4844,404.3906 C951.0625,404.6563 950.375,404.7813 949.6094,404.7813 C947.5625,404.7813 946.2656,403.6875 946.2656,401.9844 L946.2656,400.8906 C946.2656,399.1094 947.5156,397.7969 949.25,397.7969 C949.8281,397.7969 950.4375,397.9531 950.9063,398.2031 C951.3906,398.4844 951.5625,398.7031 951.6563,399.1094 C951.7188,399.5156 951.75,399.6406 951.8906,399.7656 C952.0313,399.9063 952.2656,400.0156 952.4844,400.0156 C952.75,400.0156 953.0156,399.875 953.1875,399.6563 C953.2969,399.5 953.3281,399.3125 953.3281,398.8906 L953.3281,397.4688 C953.3281,397.0313 953.3125,396.9063 953.2188,396.75 C953.0625,396.4844 952.7813,396.3438 952.4844,396.3438 C952.1875,396.3438 951.9844,396.4375 951.7656,396.75 L951.5938,396.6719 Z " fill="#000000"/><text fill="#000000" font-family="sans-serif" font-size="14" lengthAdjust="spacing" textLength="58" x="969.75" y="405.8467">Hombre</text><line style="stroke:#181818;stroke-width:0.5;" x1="873.5" x2="1091.5" y1="417" y2="417"/><line style="stroke:#181818;stroke-width:0.5;" x1="873.5" x2="1091.5" y1="425" y2="425"/><ellipse cx="883.5" cy="438.6484" fill="#84BE84" rx="3" ry="3" style="stroke:#038048;stroke-width:1.0;"/><text fill="#000000" font-family="sans-serif" font-size="14" lengthAdjust="spacing" textLength="151" x="892.5" y="441.9951">void recibirPalmada()</text><ellipse cx="883.5" cy="454.9453" fill="#84BE84" rx="3" ry="3" style="stroke:#038048;stroke-width:1.0;"/><text fill="#000000" font-family="sans-serif" font-size="14" lengthAdjust="spacing" textLength="194" x="892.5" y="458.292">void aceptar(AparcaCohes)</text><ellipse cx="883.5" cy="471.2422" fill="#84BE84" rx="3" ry="3" style="stroke:#038048;stroke-width:1.0;"/><text fill="#000000" font-family="sans-serif" font-size="14" lengthAdjust="spacing" textLength="170" x="892.5" y="474.5889">void aceptar(Camarero)</text></g><g id="elem_GMN15"><path d="M1127.5,390.5 L1127.5,429.5 L1092.66,433.5 L1127.5,437.5 L1127.5,476.1641 A0,0 0 0 0 1127.5,476.1641 L1309.5,476.1641 A0,0 0 0 0 1309.5,476.1641 L1309.5,400.5 L1299.5,390.5 L1127.5,390.5 A0,0 0 0 0 1127.5,390.5 " fill="#FEFFDD" style="stroke:#181818;stroke-width:0.5;"/><path d="M1299.5,390.5 L1299.5,400.5 L1309.5,400.5 L1299.5,390.5 " fill="#FEFFDD" style="stroke:#181818;stroke-width:0.5;"/><text fill="#000000" font-family="sans-serif" font-size="13" lengthAdjust="spacing" textLength="80" x="1133.5" y="407.5669">void aceptar</text><text fill="#000000" font-family="sans-serif" font-size="13" lengthAdjust="spacing" textLength="153" x="1141.5" y="422.6997">(Camarero camarero) {</text><text fill="#000000" font-family="sans-serif" font-size="13" lengthAdjust="spacing" textLength="62" x="1141.5" y="437.8325">camarero</text><text fill="#000000" font-family="sans-serif" font-size="13" lengthAdjust="spacing" textLength="81" x="1149.5" y="452.9653">.visitar(this);</text><text fill="#000000" font-family="sans-serif" font-size="13" lengthAdjust="spacing" textLength="9" x="1133.5" y="468.0981">}</text></g><!--class Restaurante--><g id="elem_Restaurante"><rect codeLine="1" fill="#F1F1F1" height="64.2969" id="Restaurante" rx="2.5" ry="2.5" style="stroke:#181818;stroke-width:0.5;" width="156" x="470.5" y="7"/><ellipse cx="501.7" cy="23" fill="#ADD1B2" rx="11" ry="11" style="stroke:#181818;stroke-width:1.0;"/><path d="M504.0438,18.6719 C503.1063,18.2344 502.5125,18.0938 501.6375,18.0938 C499.0125,18.0938 497.0125,20.1719 497.0125,22.8906 L497.0125,24.0156 C497.0125,26.5938 499.1219,28.4844 502.0125,28.4844 C503.2313,28.4844 504.3875,28.1875 505.1375,27.6406 C505.7156,27.2344 506.0438,26.7813 506.0438,26.3906 C506.0438,25.9375 505.6531,25.5469 505.1844,25.5469 C504.9656,25.5469 504.7625,25.625 504.575,25.8125 C504.1219,26.2969 504.1219,26.2969 503.9344,26.3906 C503.5125,26.6563 502.825,26.7813 502.0594,26.7813 C500.0125,26.7813 498.7156,25.6875 498.7156,23.9844 L498.7156,22.8906 C498.7156,21.1094 499.9656,19.7969 501.7,19.7969 C502.2781,19.7969 502.8875,19.9531 503.3563,20.2031 C503.8406,20.4844 504.0125,20.7031 504.1063,21.1094 C504.1688,21.5156 504.2,21.6406 504.3406,21.7656 C504.4813,21.9063 504.7156,22.0156 504.9344,22.0156 C505.2,22.0156 505.4656,21.875 505.6375,21.6563 C505.7469,21.5 505.7781,21.3125 505.7781,20.8906 L505.7781,19.4688 C505.7781,19.0313 505.7625,18.9063 505.6688,18.75 C505.5125,18.4844 505.2313,18.3438 504.9344,18.3438 C504.6375,18.3438 504.4344,18.4375 504.2156,18.75 L504.0438,18.6719 Z " fill="#000000"/><text fill="#000000" font-family="sans-serif" font-size="14" lengthAdjust="spacing" textLength="88" x="519.3" y="27.8467">Restaurante</text><line style="stroke:#181818;stroke-width:0.5;" x1="471.5" x2="625.5" y1="39" y2="39"/><line style="stroke:#181818;stroke-width:0.5;" x1="471.5" x2="625.5" y1="47" y2="47"/><ellipse cx="481.5" cy="60.6484" fill="#84BE84" rx="3" ry="3" style="stroke:#038048;stroke-width:1.0;"/><text fill="#000000" font-family="sans-serif" font-size="14" lengthAdjust="spacing" textLength="130" x="490.5" y="63.9951">simularEscenario()</text></g><!--class AparcaCohes--><g id="elem_AparcaCohes"><rect codeLine="5" fill="#F1F1F1" height="96.8906" id="AparcaCohes" rx="2.5" ry="2.5" style="stroke:#181818;stroke-width:0.5;" width="228" x="1341.5" y="187.5"/><ellipse cx="1404.25" cy="203.5" fill="#ADD1B2" rx="11" ry="11" style="stroke:#181818;stroke-width:1.0;"/><path d="M1406.5938,199.1719 C1405.6563,198.7344 1405.0625,198.5938 1404.1875,198.5938 C1401.5625,198.5938 1399.5625,200.6719 1399.5625,203.3906 L1399.5625,204.5156 C1399.5625,207.0938 1401.6719,208.9844 1404.5625,208.9844 C1405.7813,208.9844 1406.9375,208.6875 1407.6875,208.1406 C1408.2656,207.7344 1408.5938,207.2813 1408.5938,206.8906 C1408.5938,206.4375 1408.2031,206.0469 1407.7344,206.0469 C1407.5156,206.0469 1407.3125,206.125 1407.125,206.3125 C1406.6719,206.7969 1406.6719,206.7969 1406.4844,206.8906 C1406.0625,207.1563 1405.375,207.2813 1404.6094,207.2813 C1402.5625,207.2813 1401.2656,206.1875 1401.2656,204.4844 L1401.2656,203.3906 C1401.2656,201.6094 1402.5156,200.2969 1404.25,200.2969 C1404.8281,200.2969 1405.4375,200.4531 1405.9063,200.7031 C1406.3906,200.9844 1406.5625,201.2031 1406.6563,201.6094 C1406.7188,202.0156 1406.75,202.1406 1406.8906,202.2656 C1407.0313,202.4063 1407.2656,202.5156 1407.4844,202.5156 C1407.75,202.5156 1408.0156,202.375 1408.1875,202.1563 C1408.2969,202 1408.3281,201.8125 1408.3281,201.3906 L1408.3281,199.9688 C1408.3281,199.5313 1408.3125,199.4063 1408.2188,199.25 C1408.0625,198.9844 1407.7813,198.8438 1407.4844,198.8438 C1407.1875,198.8438 1406.9844,198.9375 1406.7656,199.25 L1406.5938,199.1719 Z " fill="#000000"/><text fill="#000000" font-family="sans-serif" font-size="14" lengthAdjust="spacing" textLength="94" x="1424.75" y="208.3467">AparcaCohes</text><line style="stroke:#181818;stroke-width:0.5;" x1="1342.5" x2="1568.5" y1="219.5" y2="219.5"/><line style="stroke:#181818;stroke-width:0.5;" x1="1342.5" x2="1568.5" y1="227.5" y2="227.5"/><ellipse cx="1352.5" cy="241.1484" fill="#84BE84" rx="3" ry="3" style="stroke:#038048;stroke-width:1.0;"/><text fill="#000000" font-family="sans-serif" font-size="14" lengthAdjust="spacing" textLength="202" x="1361.5" y="244.4951">void recogerCoche(Persona)</text><ellipse cx="1352.5" cy="257.4453" fill="#84BE84" rx="3" ry="3" style="stroke:#038048;stroke-width:1.0;"/><text fill="#000000" font-family="sans-serif" font-size="14" lengthAdjust="spacing" textLength="127" x="1361.5" y="260.792">void visitar(Mujer)</text><ellipse cx="1352.5" cy="273.7422" fill="#84BE84" rx="3" ry="3" style="stroke:#038048;stroke-width:1.0;"/><text fill="#000000" font-family="sans-serif" font-size="14" lengthAdjust="spacing" textLength="146" x="1361.5" y="277.0889">void visitar(Hombre)</text></g><!--class Camarero--><g id="elem_Camarero"><rect codeLine="11" fill="#F1F1F1" height="96.8906" id="Camarero" rx="2.5" ry="2.5" style="stroke:#181818;stroke-width:0.5;" width="174" x="194.5" y="187.5"/><ellipse cx="242.25" cy="203.5" fill="#ADD1B2" rx="11" ry="11" style="stroke:#181818;stroke-width:1.0;"/><path d="M244.5938,199.1719 C243.6563,198.7344 243.0625,198.5938 242.1875,198.5938 C239.5625,198.5938 237.5625,200.6719 237.5625,203.3906 L237.5625,204.5156 C237.5625,207.0938 239.6719,208.9844 242.5625,208.9844 C243.7813,208.9844 244.9375,208.6875 245.6875,208.1406 C246.2656,207.7344 246.5938,207.2813 246.5938,206.8906 C246.5938,206.4375 246.2031,206.0469 245.7344,206.0469 C245.5156,206.0469 245.3125,206.125 245.125,206.3125 C244.6719,206.7969 244.6719,206.7969 244.4844,206.8906 C244.0625,207.1563 243.375,207.2813 242.6094,207.2813 C240.5625,207.2813 239.2656,206.1875 239.2656,204.4844 L239.2656,203.3906 C239.2656,201.6094 240.5156,200.2969 242.25,200.2969 C242.8281,200.2969 243.4375,200.4531 243.9063,200.7031 C244.3906,200.9844 244.5625,201.2031 244.6563,201.6094 C244.7188,202.0156 244.75,202.1406 244.8906,202.2656 C245.0313,202.4063 245.2656,202.5156 245.4844,202.5156 C245.75,202.5156 246.0156,202.375 246.1875,202.1563 C246.2969,202 246.3281,201.8125 246.3281,201.3906 L246.3281,199.9688 C246.3281,199.5313 246.3125,199.4063 246.2188,199.25 C246.0625,198.9844 245.7813,198.8438 245.4844,198.8438 C245.1875,198.8438 244.9844,198.9375 244.7656,199.25 L244.5938,199.1719 Z " fill="#000000"/><text fill="#000000" font-family="sans-serif" font-size="14" lengthAdjust="spacing" textLength="70" x="262.75" y="208.3467">Camarero</text><line style="stroke:#181818;stroke-width:0.5;" x1="195.5" x2="367.5" y1="219.5" y2="219.5"/><line style="stroke:#181818;stroke-width:0.5;" x1="195.5" x2="367.5" y1="227.5" y2="227.5"/><ellipse cx="205.5" cy="241.1484" fill="#84BE84" rx="3" ry="3" style="stroke:#038048;stroke-width:1.0;"/><text fill="#000000" font-family="sans-serif" font-size="14" lengthAdjust="spacing" textLength="148" x="214.5" y="244.4951">void recibir(Persona)</text><ellipse cx="205.5" cy="257.4453" fill="#84BE84" rx="3" ry="3" style="stroke:#038048;stroke-width:1.0;"/><text fill="#000000" font-family="sans-serif" font-size="14" lengthAdjust="spacing" textLength="127" x="214.5" y="260.792">void visitar(Mujer)</text><ellipse cx="205.5" cy="273.7422" fill="#84BE84" rx="3" ry="3" style="stroke:#038048;stroke-width:1.0;"/><text fill="#000000" font-family="sans-serif" font-size="14" lengthAdjust="spacing" textLength="146" x="214.5" y="277.0889">void visitar(Hombre)</text></g><g id="elem_GMN5"><path d="M6,148 L6,324.4609 A0,0 0 0 0 6,324.4609 L159,324.4609 A0,0 0 0 0 159,324.4609 L159,240 L194.459,236 L159,232 L159,158 L149,148 L6,148 A0,0 0 0 0 6,148 " fill="#FEFFDD" style="stroke:#181818;stroke-width:0.5;"/><path d="M149,148 L149,158 L159,158 L149,148 " fill="#FEFFDD" style="stroke:#181818;stroke-width:0.5;"/><text fill="#000000" font-family="sans-serif" font-size="13" lengthAdjust="spacing" textLength="70" x="12" y="165.0669">void visitar</text><text fill="#000000" font-family="sans-serif" font-size="13" lengthAdjust="spacing" textLength="98" x="20" y="180.1997">(Mujer mujer) {</text><text fill="#000000" font-family="sans-serif" font-size="13" lengthAdjust="spacing" textLength="37" x="20" y="195.3325">mujer</text><text fill="#000000" font-family="sans-serif" font-size="13" lengthAdjust="spacing" textLength="98" x="28" y="210.4653">.recibirPiropo();</text><text fill="#000000" font-family="sans-serif" font-size="13" lengthAdjust="spacing" textLength="9" x="12" y="225.5981">}</text><text fill="#000000" font-family="sans-serif" font-size="13" lengthAdjust="spacing" textLength="4" x="12" y="240.731">&#160;</text><text fill="#000000" font-family="sans-serif" font-size="13" lengthAdjust="spacing" textLength="70" x="12" y="255.8638">void visitar</text><text fill="#000000" font-family="sans-serif" font-size="13" lengthAdjust="spacing" textLength="124" x="20" y="270.9966">(Hombre hombre){</text><text fill="#000000" font-family="sans-serif" font-size="13" lengthAdjust="spacing" textLength="50" x="20" y="286.1294">hombre</text><text fill="#000000" font-family="sans-serif" font-size="13" lengthAdjust="spacing" textLength="114" x="28" y="301.2622">.recibirPalmada();</text><text fill="#000000" font-family="sans-serif" font-size="13" lengthAdjust="spacing" textLength="9" x="12" y="316.395">}</text></g><!--link Restaurante to AparcaCohes--><g id="link_Restaurante_AparcaCohes"><path codeLine="65" d="M639.633,39.608 C788.202,41.801 1089.69,58.176 1325.5,148 C1346.19,155.882 1366.89,167.57 1385.5,179.838 " fill="none" id="Restaurante-AparcaCohes" style="stroke:#181818;stroke-width:1.0;"/><polygon fill="#181818" points="626.605,39.446,632.5553,43.5195,638.6041,39.5937,632.6538,35.5202,626.605,39.446" style="stroke:#181818;stroke-width:1.0;"/><polygon fill="#181818" points="1396.49,187.313,1391.2992,178.9431,1392.3561,184.5003,1386.7989,185.5573,1396.49,187.313" style="stroke:#181818;stroke-width:1.0;"/><line style="stroke:#181818;stroke-width:1.0;" x1="1392.3561" x2="1385.74" y1="184.5003" y2="180.0035"/></g><!--link Restaurante to Camarero--><g id="link_Restaurante_Camarero"><path codeLine="66" d="M486.749,78.202 C455.5,98.148 417.332,123.46 384.5,148 C371.555,157.676 358.101,168.46 345.354,179.052 " fill="none" id="Restaurante-Camarero" style="stroke:#181818;stroke-width:1.0;"/><polygon fill="#181818" points="497.926,71.108,490.7167,70.9465,487.7948,77.5391,495.0041,77.7006,497.926,71.108" style="stroke:#181818;stroke-width:1.0;"/><polygon fill="#181818" points="335.305,187.48,344.7711,184.7608,339.1358,184.2668,339.6299,178.6315,335.305,187.48" style="stroke:#181818;stroke-width:1.0;"/><line style="stroke:#181818;stroke-width:1.0;" x1="339.1358" x2="345.265" y1="184.2668" y2="179.126"/></g><!--link Restaurante to Persona--><g id="link_Restaurante_Persona"><path codeLine="67" d="M548.5,84.384 C548.5,113.47 548.5,151.633 548.5,182.266 " fill="none" id="Restaurante-Persona" style="stroke:#181818;stroke-width:1.0;"/><polygon fill="#181818" points="548.5,71.33,544.5,77.33,548.5,83.33,552.5,77.33,548.5,71.33" style="stroke:#181818;stroke-width:1.0;"/><polygon fill="#181818" points="548.5,195.317,552.5,186.317,548.5,190.317,544.5,186.317,548.5,195.317" style="stroke:#181818;stroke-width:1.0;"/><line style="stroke:#181818;stroke-width:1.0;" x1="548.5" x2="548.5" y1="190.317" y2="182.317"/><text fill="#000000" font-family="sans-serif" font-size="13" lengthAdjust="spacing" textLength="42" x="549.5" y="114.0669">cliente</text></g><!--link AparcaCohes to Persona--><g id="link_AparcaCohes_Persona"><path codeLine="69" d="M1341.13,236 C1115.45,236 889.779,236 664.106,236 " fill="none" id="AparcaCohes-to-Persona" style="stroke:#181818;stroke-width:1.0;stroke-dasharray:7.0,7.0;"/><polygon fill="#181818" points="658.775,236,667.775,240,663.775,236,667.775,232,658.775,236" style="stroke:#181818;stroke-width:1.0;"/></g><!--link Persona to AparcaCohes--><g id="link_Persona_AparcaCohes"><path codeLine="82" d="M658.775,236 C884.448,236 1110.12,236 1335.8,236 " fill="none" id="Persona-to-AparcaCohes" style="stroke:#181818;stroke-width:1.0;stroke-dasharray:7.0,7.0;"/><polygon fill="#181818" points="1341.13,236,1332.13,232,1336.13,236,1332.13,240,1341.13,236" style="stroke:#181818;stroke-width:1.0;"/></g><!--link AparcaCohes to Hombre--><g id="link_AparcaCohes_Hombre"><path codeLine="70" d="M1393.05,284.553 C1372.35,298.71 1348.67,313.286 1325.5,324 C1235.34,365.688 1204.91,354.142 1110.5,385 C1106.2,386.406 1101.83,387.867 1097.42,389.366 " fill="none" id="AparcaCohes-to-Hombre" style="stroke:#181818;stroke-width:1.0;stroke-dasharray:7.0,7.0;"/><polygon fill="#181818" points="1092.62,391.007,1102.4295,391.8866,1097.3522,389.3925,1099.8463,384.3151,1092.62,391.007" style="stroke:#181818;stroke-width:1.0;"/></g><!--link Hombre to AparcaCohes--><g id="link_Hombre_AparcaCohes"><path codeLine="80" d="M1092.79,390.304 C1098.75,388.421 1104.68,386.638 1110.5,385 C1177.2,366.218 1197.91,377.365 1263.5,355 C1292.66,345.057 1298.87,339.487 1325.5,324 C1344.71,312.831 1364.91,299.916 1383.52,287.51 " fill="none" id="Hombre-to-AparcaCohes" style="stroke:#181818;stroke-width:1.0;stroke-dasharray:7.0,7.0;"/><polygon fill="#181818" points="1387.71,284.705,1378.003,286.3706,1383.5502,287.4792,1382.4417,293.0263,1387.71,284.705" style="stroke:#181818;stroke-width:1.0;"/></g><!--link AparcaCohes to Mujer--><g id="link_AparcaCohes_Mujer"><path codeLine="71" d="M1398.1,284.632 C1376.61,299.879 1351.16,315.1 1325.5,324 C1244.63,352.049 1026.75,346.31 941.5,354 C806.678,366.162 770.346,354.317 638.5,385 C634.269,385.985 629.987,387.072 625.684,388.242 " fill="none" id="AparcaCohes-to-Mujer" style="stroke:#181818;stroke-width:1.0;stroke-dasharray:7.0,7.0;"/><polygon fill="#181818" points="620.625,389.652,630.3687,391.0876,625.4413,388.309,628.2199,383.3816,620.625,389.652" style="stroke:#181818;stroke-width:1.0;"/></g><!--link Mujer to AparcaCohes--><g id="link_Mujer_AparcaCohes"><path codeLine="81" d="M620.603,389.556 C626.613,387.867 632.604,386.331 638.5,385 C937.515,317.522 1036.43,425.9847 1325.5,324 C1349.29,315.607 1372.93,301.85 1393.4,287.726 " fill="none" id="Mujer-to-AparcaCohes" style="stroke:#181818;stroke-width:1.0;stroke-dasharray:7.0,7.0;"/><polygon fill="#181818" points="1397.72,284.709,1388.0494,286.5744,1393.6183,287.5683,1392.6244,293.1372,1397.72,284.709" style="stroke:#181818;stroke-width:1.0;"/></g><!--link Camarero to Persona--><g id="link_Camarero_Persona"><path codeLine="73" d="M368.588,267.979 C390.058,272.046 411.529,273.291 432.999,271.714 " fill="none" id="Camarero-to-Persona" style="stroke:#181818;stroke-width:1.0;stroke-dasharray:7.0,7.0;"/><polygon fill="#181818" points="438.163,271.28,428.8597,268.0476,433.1806,271.6987,429.5295,276.0195,438.163,271.28" style="stroke:#181818;stroke-width:1.0;"/></g><!--link Persona to Camarero--><g id="link_Persona_Camarero"><path codeLine="86" d="M438.163,200.72 C416.693,198.69 395.222,199.482 373.752,203.098 " fill="none" id="Persona-to-Camarero" style="stroke:#181818;stroke-width:1.0;stroke-dasharray:7.0,7.0;"/><polygon fill="#181818" points="368.588,204.021,378.1516,206.3744,373.5099,203.1409,376.7434,198.4993,368.588,204.021" style="stroke:#181818;stroke-width:1.0;"/></g><!--link Camarero to Hombre--><g id="link_Camarero_Hombre"><path codeLine="74" d="M326.531,284.714 C343.291,299.679 363.402,314.702 384.5,324 C577.657,409.123 650.638,334.139 855.5,385 C859.523,385.999 863.594,387.085 867.686,388.242 " fill="none" id="Camarero-to-Hombre" style="stroke:#181818;stroke-width:1.0;stroke-dasharray:7.0,7.0;"/><polygon fill="#181818" points="872.499,389.631,864.9618,383.2914,867.6952,388.244,862.7426,390.9774,872.499,389.631" style="stroke:#181818;stroke-width:1.0;"/></g><!--link Hombre to Camarero--><g id="link_Hombre_Camarero"><path codeLine="84" d="M872.232,389.177 C866.615,387.627 861.017,386.219 855.5,385 C686.181,347.592 635.753,392.707 466.5,355 C428.47,346.528 418.089,343.744 384.5,324 C367.292,313.885 350.12,300.856 334.869,287.976 " fill="none" id="Hombre-to-Camarero" style="stroke:#181818;stroke-width:1.0;stroke-dasharray:7.0,7.0;"/><polygon fill="#181818" points="331.034,284.706,335.29,293.5878,334.8397,287.9489,340.4787,287.4986,331.034,284.706" style="stroke:#181818;stroke-width:1.0;"/></g><!--link Camarero to Mujer--><g id="link_Camarero_Mujer"><path codeLine="75" d="M311.577,284.625 C327.729,307.729 349.111,334.783 372.5,355 C383.8,364.767 396.522,373.881 409.554,382.177 " fill="none" id="Camarero-to-Mujer" style="stroke:#181818;stroke-width:1.0;stroke-dasharray:7.0,7.0;"/><polygon fill="#181818" points="413.984,384.96,408.4888,376.7867,409.7495,382.3013,404.2349,383.5619,413.984,384.96" style="stroke:#181818;stroke-width:1.0;"/></g><!--link Mujer to Camarero--><g id="link_Mujer_Camarero"><path codeLine="85" d="M405.986,384.893 C391.301,376.011 376.981,366.011 364.5,355 C343.37,336.359 324.783,311.314 310.583,289.093 " fill="none" id="Mujer-to-Camarero" style="stroke:#181818;stroke-width:1.0;stroke-dasharray:7.0,7.0;"/><polygon fill="#181818" points="307.803,284.689,309.2274,294.4343,310.4731,288.9163,315.9911,290.1621,307.803,284.689" style="stroke:#181818;stroke-width:1.0;"/></g><!--reverse link Persona to Hombre--><g id="link_Persona_Hombre"><path codeLine="77" d="M654.821,284.893 C722.344,315.31 809.392,354.522 876.796,384.884 " fill="none" id="Persona-backto-Hombre" style="stroke:#181818;stroke-width:1.0;"/><polygon fill="none" points="651.687,291.159,636.326,276.562,657.437,278.394,651.687,291.159" style="stroke:#181818;stroke-width:1.0;"/></g><!--reverse link Persona to Mujer--><g id="link_Persona_Mujer"><path codeLine="78" d="M536.928,296.536 C531.434,324.801 524.957,358.124 519.79,384.707 " fill="none" id="Persona-backto-Mujer" style="stroke:#181818;stroke-width:1.0;"/><polygon fill="none" points="530.123,294.859,540.81,276.562,543.865,297.531,530.123,294.859" style="stroke:#181818;stroke-width:1.0;"/></g><!--SRC=[pPF1JiCm38RlUOeSDz3s082Gq8Iq2zB46tYfMGDjKZdTE8ozEqqTbtJTE73YrFIF_Tl-afWAGj2l65hO4xWMzL7Twc3hVGNq70mw8EjdStLIolInJmsGWPKlCVIn1syBJMZy3cdbJOcp3LBm3kQoUR31ja2pb_qxqaHT-tfBc1LOGGs4vFN8tcuj_TdP-Mwm2jzQbGSehJbJrtr-Lq_piljglKnLDvPyqo6uZosUvtCDNNAfQC3BiGDKDHJ05kYAs8vI3PWFsA5kUAX8Ky4sj0IcrOmYpSiaZh9vuZ71O1F7p0va_akOOCr8y_0Jp3Amo5SANNNlQPFTbGbtYecuXhCr4jz3bp-c9kVNbZQCaN7RYVcqRy7y_nhlaETlx6PH-4-tUCmVq-K0gNjvL-x7NNTVBBfOAN-Uo-KGCj4PuaJkhuHImxYvnKXC-ICj9KjN3r_SfyHEz1IVpZCwv3puTfwhOdAkvou3j1-BGShpHVm6]--></g></svg>